<?xml version="1.0" encoding="UTF-8"?>
<!DOCTYPE svg PUBLIC "-//W3C//DTD SVG 1.1//EN" "http://www.w3.org/Graphics/SVG/1.1/DTD/svg11.dtd">
<!-- Creator: CorelDRAW X6 -->
<svg xmlns="http://www.w3.org/2000/svg" xml:space="preserve" width="276mm" height="210mm" version="1.1" style="shape-rendering:geometricPrecision; text-rendering:geometricPrecision; image-rendering:optimizeQuality; fill-rule:evenodd; clip-rule:evenodd"
viewBox="0 0 27600 21000"
 xmlns:xlink="http://www.w3.org/1999/xlink">
 <defs>
  <style type="text/css">
   <![CDATA[
    .str4 {stroke:#2B2A29;stroke-width:7}
    .str3 {stroke:#2B2A29;stroke-width:7.62}
    .str1 {stroke:#2B2A29;stroke-width:10}
    .str0 {stroke:#2B2A29;stroke-width:20}
    .str2 {stroke:#2B2A29;stroke-width:20;stroke-linejoin:round}
    .str5 {stroke:#2B2A29;stroke-width:20;stroke-linejoin:bevel}
    .str6 {stroke:#2B2A29;stroke-width:40}
    .str7 {stroke:#2B2A29;stroke-width:50}
    .fil2 {fill:none}
    .fil3 {fill:#2B2A29}
    .fil4 {fill:#1F1B1F}
    .fil1 {fill:#201C1E}
    .fil0 {fill:url(#id0)}
   ]]>
  </style>
  <linearGradient id="id0" gradientUnits="userSpaceOnUse" x1="14277.5" y1="-1703.62" x2="13176" y2="22537.6">
   <stop offset="0" style="stop-color:#3E5D7C"/>
   <stop offset="1" style="stop-color:#9FB1BB"/>
  </linearGradient>
 </defs>
 <g id="Слой_x0020_1">
  <metadata id="CorelCorpID_0Corel-Layer"/>
  <rect class="fil0" x="-113" y="-107" width="27679" height="21048"/>
  <path class="fil1" d="M9026 11798c-88,-34 -239,-73 -454,-118 702,53 1128,86 1280,99 983,83 1512,129 1589,137 1061,104 1702,178 1925,223 643,109 1123,194 1442,252 1070,321 1932,597 2588,829 1130,454 1806,722 2029,805 2992,1048 4617,1635 4875,1761 0,-494 0,-741 0,-741 1708,555 2761,884 3161,988 0,1081 0,1621 0,1621 -1938,-674 -3418,-1261 -4439,-1761 -2245,-959 -3537,-1503 -3876,-1632 -1391,-584 -2290,-946 -2695,-1084 -855,-347 -1421,-562 -1697,-644 -706,-162 -1369,-291 -1986,-387 -2383,-270 -3630,-386 -3742,-349z"/>
  <path class="fil2 str0" d="M-27 12890c2069,-168 3601,-319 4594,-451 479,-66 778,-110 895,-133 490,-79 834,-144 1031,-196 636,-90 991,-150 1062,-179 351,-74 569,-123 653,-148 104,-29 155,-43 155,-43 59,-21 83,-31 72,-33"/>
  <path class="fil2 str1" d="M4540 12496c-2612,352 -4175,499 -4529,518 0,0 0,651 0,2105 -63,450 827,339 2672,-333 -116,-97 1867,-791 5949,-2083 376,-38 659,-258 848,-660 -268,-158 -557,-262 -870,-314 -242,73 -475,136 -698,191 -697,167 -1821,360 -3372,578z"/>
  <path class="fil2 str0" d="M-27 12627c2080,-143 3580,-266 4503,-370"/>
  <path class="fil2 str2" d="M4438 12261c1989,-250 3034,-390 3118,-443 533,-94 808,-181 879,-201 -71,-28 -272,-40 -590,-50"/>
  <rect class="fil3 str0" x="468" y="12574" width="17.481" height="293.474"/>
  <path class="fil4" d="M-27 14394c0,1076 0,1620 0,1620 1039,-473 1905,-839 2598,-1095 796,-317 1548,-582 2255,-795 774,-255 1475,-492 2105,-709 677,-187 1347,-454 1988,-825 221,-134 351,-245 502,-383 -2,-57 16,-150 21,-213 -168,164 -334,284 -483,381 -775,384 -1422,642 -1944,773 -492,138 -1206,354 -2142,650 -1342,406 -2340,723 -2996,950 -464,168 -867,307 -1208,419 52,-619 79,-959 81,-1020 -485,148 -744,227 -777,247z"/>
  <rect class="fil3 str0" x="1078" y="12520" width="17.481" height="293.474"/>
  <rect class="fil3 str0" x="1615" y="12480" width="17.481" height="293.474"/>
  <rect class="fil3 str0" x="2114" y="12447" width="17.481" height="275.06"/>
  <rect class="fil2 str0" x="7542" y="11388" width="13.5445" height="556.674"/>
  <rect class="fil2 str0" x="7059" y="11348" width="19.4594" height="689.613"/>
  <rect class="fil2 str0" x="6471" y="11324" width="22.1379" height="818.747"/>
  <rect class="fil3 str0" x="5697" y="11383" width="25.7396" height="889.138"/>
  <rect class="fil2 str0" x="8008" y="11418" width="11.5762" height="419.149"/>
  <rect class="fil2 str0" x="8200" y="11428" width="8.41078" height="356.57"/>
  <rect class="fil2 str0" x="8356" y="11457" width="8.18758" height="283.694"/>
  <rect class="fil2 str1" x="7875" y="11449" width="9.39491" height="198.643"/>
  <rect class="fil3 str0" transform="matrix(1.01398 0.034463 -0.034463 1.01398 4472.33 11411.1)" width="24.81" height="1024.9"/>
  <rect class="fil3 str0" transform="matrix(1.01419 0.0276333 -0.0276333 1.01419 2356.98 11459.3)" width="34" height="1245.8"/>
  <g id="_801812720">
   <polyline class="fil2 str1" points="486,12624 771,12600 768,12798 523,12822 525,12641 743,12622 740,12776 548,12796 551,12663 721,12645 719,12761 571,12774 571,12687 701,12671 696,12743 595,12751 595,12711 680,12703 674,12730 619,12733 "/>
   <polyline class="fil2 str1" points="775,12599 1060,12576 1058,12765 812,12788 815,12615 1032,12597 1030,12743 838,12762 840,12636 1011,12619 1008,12729 860,12742 860,12659 991,12643 985,12712 885,12720 885,12682 969,12674 964,12700 909,12702 "/>
   <polygon class="fil3" points="770,12647 814,12645 813,12748 769,12753 "/>
  </g>
  <g id="_801811984">
   <polyline class="fil2 str1" points="1089,12571 1343,12552 1336,12748 1118,12767 1124,12589 1317,12574 1312,12725 1141,12741 1146,12610 1298,12596 1293,12710 1162,12721 1163,12635 1279,12621 1273,12692 1183,12699 1184,12659 1260,12652 1254,12679 1205,12680 "/>
   <polyline class="fil2 str1" points="1346,12551 1600,12534 1594,12721 1375,12739 1381,12568 1575,12555 1569,12699 1399,12714 1403,12589 1555,12576 1551,12684 1419,12694 1421,12612 1537,12599 1531,12667 1441,12673 1442,12635 1517,12629 1512,12654 1463,12656 "/>
   <polygon class="fil3" points="1341,12599 1380,12598 1377,12700 1338,12703 "/>
  </g>
  <g id="_801811216">
   <polyline class="fil2 str1" points="-168,12672 139,12646 136,12860 -128,12886 -125,12691 109,12671 106,12836 -101,12857 -98,12714 86,12695 83,12820 -76,12834 -76,12740 64,12723 58,12801 -50,12809 -50,12766 41,12757 35,12786 -24,12789 "/>
   <polyline class="fil2 str1" points="144,12645 451,12620 448,12824 183,12849 186,12663 420,12644 418,12801 211,12821 214,12685 397,12667 394,12786 235,12799 235,12710 376,12693 370,12768 261,12776 261,12735 352,12726 347,12754 287,12757 "/>
   <polygon class="fil3" points="138,12697 186,12695 184,12806 137,12811 "/>
  </g>
  <g id="_801810480">
   <polyline class="fil2 str1" points="2119,12496 2339,12479 2334,12660 2144,12678 2150,12513 2317,12499 2312,12639 2165,12654 2169,12533 2300,12520 2296,12625 2182,12635 2184,12555 2284,12543 2279,12609 2201,12614 2202,12578 2267,12572 2263,12596 2220,12598 "/>
   <polyline class="fil2 str1" points="2342,12478 2562,12462 2556,12635 2367,12652 2372,12494 2540,12481 2535,12614 2387,12629 2392,12513 2523,12501 2519,12601 2405,12610 2407,12534 2507,12523 2502,12586 2424,12591 2425,12556 2490,12550 2485,12574 2443,12575 "/>
   <polygon class="fil3" points="2338,12522 2372,12521 2369,12615 2335,12619 "/>
  </g>
  <g id="_801809744">
   <polyline class="fil2 str1" points="1628,12529 1864,12511 1858,12703 1655,12722 1661,12547 1840,12533 1835,12680 1677,12696 1681,12568 1822,12554 1818,12666 1696,12676 1697,12592 1805,12579 1799,12648 1716,12654 1717,12616 1787,12609 1782,12635 1736,12637 "/>
   <polyline class="fil2 str1" points="1867,12510 2102,12493 2096,12676 1894,12694 1899,12527 2079,12514 2074,12654 1915,12669 1920,12547 2060,12534 2056,12640 1935,12650 1936,12570 2043,12557 2038,12624 1955,12630 1956,12592 2025,12587 2020,12611 1975,12613 "/>
   <polygon class="fil3" points="1862,12557 1898,12556 1895,12655 1859,12659 "/>
  </g>
  <rect class="fil3 str0" x="2565" y="12411" width="17.481" height="275.06"/>
  <rect class="fil3 str0" x="3010" y="12366" width="17.481" height="269.358"/>
  <rect class="fil3 str0" x="3413" y="12334" width="17.481" height="258.33"/>
  <rect class="fil3 str0" x="3818" y="12294" width="17.481" height="250.02"/>
  <rect class="fil3 str0" x="4190" y="12255" width="16.3346" height="245.323"/>
  <rect class="fil3 str0" x="4544" y="12214" width="17.481" height="237.967"/>
  <rect class="fil3 str0" x="4872" y="12177" width="17.481" height="229.932"/>
  <rect class="fil3 str0" x="5158" y="12145" width="15.1374" height="223.134"/>
  <rect class="fil3 str0" x="5420" y="12109" width="17.481" height="216.763"/>
  <rect class="fil3 str0" x="5666" y="12072" width="17.481" height="209.042"/>
  <rect class="fil3 str0" x="5943" y="12038" width="13.6662" height="203.37"/>
  <g id="_801806160">
   <polyline class="fil2 str1" points="3024,12427 3210,12409 3208,12565 3048,12583 3050,12441 3192,12427 3190,12547 3065,12562 3067,12458 3178,12445 3176,12535 3080,12545 3080,12477 3165,12464 3161,12521 3096,12527 3096,12496 3151,12490 3147,12511 3111,12513 "/>
   <polyline class="fil2 str1" points="3213,12408 3398,12391 3397,12540 3237,12557 3239,12421 3380,12408 3378,12522 3253,12537 3255,12437 3366,12425 3364,12511 3268,12521 3268,12456 3353,12444 3349,12498 3284,12504 3284,12474 3339,12468 3335,12488 3300,12490 "/>
   <polygon class="fil3" points="3210,12446 3238,12445 3237,12526 3209,12529 "/>
  </g>
  <g id="_801805424">
   <polyline class="fil2 str1" points="2579,12459 2791,12443 2786,12618 2603,12635 2608,12475 2770,12463 2765,12597 2623,12612 2627,12495 2753,12482 2750,12584 2640,12593 2641,12516 2738,12504 2733,12568 2658,12573 2659,12538 2722,12532 2717,12556 2676,12557 "/>
   <polyline class="fil2 str1" points="2794,12442 3006,12426 3001,12593 2818,12609 2823,12457 2985,12445 2980,12573 2838,12587 2842,12476 2968,12464 2965,12561 2855,12570 2856,12496 2953,12485 2948,12546 2873,12551 2874,12517 2937,12512 2932,12534 2891,12535 "/>
   <polygon class="fil3" points="2790,12484 2822,12484 2819,12574 2787,12578 "/>
  </g>
  <g id="_801804656">
   <polyline class="fil2 str1" points="3431,12385 3617,12367 3615,12523 3455,12541 3457,12399 3598,12385 3596,12505 3472,12520 3473,12416 3584,12403 3583,12494 3486,12504 3487,12435 3571,12423 3568,12480 3502,12486 3502,12454 3557,12448 3554,12469 3518,12471 "/>
   <polyline class="fil2 str1" points="3619,12366 3805,12349 3803,12498 3643,12515 3645,12380 3787,12366 3785,12481 3660,12495 3662,12396 3773,12383 3771,12470 3675,12479 3675,12414 3760,12402 3756,12457 3691,12462 3691,12432 3746,12426 3742,12447 3706,12448 "/>
   <polygon class="fil3" points="3616,12404 3645,12403 3644,12484 3615,12488 "/>
  </g>
  <g id="_801803888">
   <polyline class="fil2 str1" points="3820,12345 4005,12327 4003,12483 3844,12501 3845,12358 3987,12344 3985,12465 3860,12480 3862,12375 3973,12362 3971,12453 3875,12463 3875,12394 3960,12382 3956,12439 3891,12445 3891,12413 3946,12407 3942,12429 3906,12430 "/>
   <polyline class="fil2 str1" points="4008,12326 4194,12309 4192,12457 4032,12475 4034,12339 4175,12326 4173,12440 4049,12455 4050,12355 4161,12343 4159,12429 4063,12439 4063,12373 4148,12362 4145,12416 4079,12422 4079,12391 4134,12386 4131,12406 4095,12408 "/>
   <polygon class="fil3" points="4005,12363 4033,12363 4032,12443 4004,12447 "/>
  </g>
  <g id="_805285248">
   <polyline class="fil2 str1" points="4197,12310 4364,12291 4364,12435 4221,12454 4221,12322 4348,12308 4348,12419 4235,12434 4236,12338 4336,12324 4335,12408 4249,12419 4248,12355 4324,12343 4321,12396 4263,12402 4262,12373 4312,12367 4309,12386 4277,12388 "/>
   <polyline class="fil2 str1" points="4367,12290 4533,12272 4533,12410 4390,12428 4390,12302 4517,12288 4517,12394 4405,12409 4405,12317 4505,12304 4504,12384 4418,12394 4417,12334 4493,12322 4490,12372 4432,12378 4431,12350 4481,12344 4478,12363 4446,12365 "/>
   <polygon class="fil3" points="4364,12325 4390,12324 4390,12399 4364,12402 "/>
  </g>
  <g id="_805284512">
   <polyline class="fil2 str1" points="4544,12272 4704,12250 4706,12394 4569,12416 4567,12284 4688,12267 4690,12378 4583,12396 4582,12299 4677,12284 4678,12368 4595,12380 4593,12317 4666,12303 4664,12356 4608,12363 4607,12334 4655,12327 4652,12346 4621,12349 "/>
   <polyline class="fil2 str1" points="4706,12249 4865,12228 4867,12370 4731,12386 4728,12261 4850,12244 4851,12355 4744,12367 4743,12275 4838,12261 4838,12345 4757,12352 4755,12292 4827,12278 4825,12333 4770,12336 4769,12308 4816,12301 4814,12320 4783,12322 "/>
   <polygon class="fil3" points="4704,12284 4729,12283 4730,12357 4706,12362 "/>
  </g>
  <g id="_805283744">
   <polyline class="fil2 str3" points="4891,12229 5019,12211 5017,12351 4908,12368 4909,12241 5006,12228 5005,12335 4919,12349 4920,12256 4997,12244 4995,12324 4929,12334 4929,12273 4988,12262 4985,12312 4940,12318 4940,12290 4978,12284 4976,12303 4951,12305 "/>
   <polyline class="fil2 str3" points="5021,12211 5149,12194 5146,12331 5037,12343 5039,12222 5136,12209 5134,12316 5049,12325 5050,12236 5126,12224 5124,12306 5059,12311 5059,12253 5117,12241 5114,12294 5070,12295 5070,12269 5108,12263 5105,12281 5080,12283 "/>
   <polygon class="fil3 str3" points="5019,12244 5038,12243 5037,12315 5018,12319 "/>
  </g>
  <g id="_805282976">
   <polyline class="fil2 str3" points="5164,12193 5291,12175 5290,12315 5180,12332 5181,12205 5279,12191 5277,12299 5191,12313 5193,12220 5269,12208 5267,12288 5201,12298 5202,12237 5260,12225 5257,12276 5212,12282 5212,12254 5250,12248 5248,12267 5223,12269 "/>
   <polyline class="fil2 str3" points="5293,12175 5421,12158 5418,12295 5309,12307 5311,12186 5408,12173 5406,12280 5321,12289 5322,12200 5398,12188 5396,12270 5331,12275 5331,12216 5389,12205 5386,12258 5342,12259 5342,12233 5380,12227 5377,12245 5353,12247 "/>
   <polygon class="fil3 str3" points="5291,12208 5311,12207 5310,12279 5290,12283 "/>
  </g>
  <g id="_805282208">
   <polyline class="fil2 str3" points="5421,12155 5548,12137 5547,12276 5437,12294 5438,12167 5536,12153 5534,12261 5448,12275 5450,12182 5526,12169 5525,12250 5459,12260 5459,12199 5517,12187 5514,12238 5469,12244 5470,12216 5507,12210 5505,12229 5480,12231 "/>
   <polyline class="fil2 str3" points="5550,12137 5678,12120 5676,12257 5566,12269 5568,12148 5665,12135 5663,12242 5578,12251 5579,12162 5656,12150 5654,12232 5588,12237 5588,12178 5647,12167 5643,12220 5599,12221 5599,12194 5637,12189 5634,12207 5610,12209 "/>
   <polygon class="fil3 str3" points="5548,12170 5568,12169 5567,12241 5547,12245 "/>
  </g>
  <g id="_805281440">
   <polyline class="fil2 str3" points="5695,12117 5822,12099 5821,12238 5711,12256 5712,12129 5810,12115 5808,12222 5722,12237 5724,12144 5800,12131 5798,12212 5732,12222 5733,12161 5791,12149 5788,12200 5743,12206 5743,12177 5781,12172 5779,12190 5754,12192 "/>
   <polyline class="fil2 str3" points="5824,12098 5952,12081 5949,12218 5840,12231 5842,12110 5939,12096 5937,12203 5852,12213 5853,12124 5929,12112 5927,12193 5862,12198 5862,12140 5920,12129 5917,12182 5873,12183 5873,12156 5911,12150 5908,12168 5884,12170 "/>
   <polygon class="fil3 str3" points="5822,12132 5842,12131 5841,12203 5821,12206 "/>
  </g>
  <g id="_805280672">
   <polyline class="fil2 str3" points="5962,12083 6073,12063 6076,12184 5981,12203 5978,12093 6062,12077 6064,12171 5990,12186 5988,12105 6054,12092 6056,12162 5998,12173 5997,12120 6047,12108 6046,12152 6007,12158 6007,12134 6039,12128 6038,12144 6016,12147 "/>
   <polyline class="fil2 str3" points="6074,12062 6185,12043 6187,12163 6093,12177 6090,12072 6174,12057 6176,12150 6102,12161 6100,12084 6166,12071 6167,12142 6110,12148 6109,12097 6159,12086 6158,12132 6119,12134 6119,12111 6151,12105 6150,12121 6128,12123 "/>
   <polygon class="fil3 str3" points="6073,12092 6090,12090 6092,12153 6075,12156 "/>
  </g>
  <rect class="fil3 str0" x="6192" y="12014" width="13.6662" height="187.594"/>
  <rect class="fil3 str0" x="6420" y="11979" width="13.6662" height="171.584"/>
  <rect class="fil3 str0" x="6641" y="11952" width="11.8603" height="158.161"/>
  <g id="_805279136">
   <polyline class="fil2 str3" points="6190,12050 6301,12031 6304,12152 6209,12171 6206,12060 6290,12045 6292,12138 6218,12154 6216,12073 6282,12059 6284,12130 6226,12140 6225,12087 6275,12075 6274,12120 6235,12126 6235,12102 6267,12095 6266,12112 6244,12114 "/>
   <polyline class="fil2 str3" points="6302,12030 6413,12011 6415,12130 6321,12145 6318,12039 6402,12025 6404,12118 6330,12129 6328,12051 6394,12038 6395,12109 6338,12116 6337,12065 6387,12054 6386,12100 6347,12102 6347,12079 6379,12073 6378,12088 6356,12091 "/>
   <polygon class="fil3 str3" points="6301,12059 6318,12058 6320,12121 6303,12124 "/>
  </g>
  <g id="_805278368">
   <polyline class="fil2 str4" points="6439,12021 6531,12005 6533,12105 6455,12120 6452,12029 6522,12016 6524,12094 6462,12107 6461,12040 6515,12028 6517,12087 6469,12095 6468,12051 6509,12041 6509,12078 6477,12084 6476,12063 6503,12058 6502,12072 6484,12074 "/>
   <polyline class="fil2 str4" points="6532,12004 6623,11988 6626,12087 6547,12099 6545,12012 6615,12000 6616,12077 6555,12086 6554,12022 6608,12011 6609,12070 6562,12075 6560,12033 6602,12023 6601,12062 6569,12064 6569,12044 6596,12039 6594,12052 6577,12054 "/>
   <polygon class="fil3 str4" points="6531,12028 6545,12027 6547,12079 6533,12082 "/>
  </g>
  <rect class="fil3 str0" x="6841" y="11918" width="11.8603" height="158.821"/>
  <polygon class="fil2 str0" points="3318,12489 3467,10001 3473,9899 1685,9813 1505,12240 "/>
  <polygon class="fil2 str0" points="1685,9813 1739,9706 3489,9770 3473,9899 "/>
  <polygon class="fil2 str0" points="3489,9770 5894,10221 6442,10447 6431,10484 3827,10017 3569,9888 3473,9899 "/>
  <polygon class="fil2 str0" points="3481,9835 6302,10431 6205,12014 3306,12474 "/>
  <polygon class="fil2 str0" points="1739,9706 1776,8997 2308,9201 3478,9679 3475,9770 "/>
  <polygon class="fil2 str0" points="3489,9770 3538,9779 3548,9684 3478,9679 "/>
  <polygon class="fil2 str0" points="3548,9684 3524,9599 3478,9679 "/>
  <polygon class="fil2 str0" points="2300,9035 3524,9599 3478,9679 2257,9166 "/>
  <polyline class="fil2 str0" points="1629,8723 2300,9035 2245,9177 1586,8691 1588,8689 "/>
  <polygon class="fil2 str0" points="-27,8726 2149,9236 2164,9118 1527,8651 -27,8001 "/>
  <polygon class="fil2 str0" points="-27,12506 1586,12320 1712,9760 1768,9147 329,8608 -27,8608 "/>
  <polygon class="fil2 str0" points="1186,12374 1720,12401 2041,12314 2047,11545 1682,11590 1159,11566 1148,12366 "/>
  <polygon class="fil2 str0" points="466,9483 697,9515 627,10551 402,10541 "/>
  <polygon class="fil2 str0" points="462,9558 531,9558 456,10476 406,10473 "/>
  <polygon class="fil2 str0" points="435,9991 495,9996 491,10048 432,10044 "/>
  <polygon class="fil2 str5" points="456,10476 627,10551 402,10538 406,10473 "/>
  <polygon class="fil2 str0" points="466,9483 462,9558 531,9558 697,9515 "/>
  <polygon class="fil2 str5" points="462,9558 531,9558 697,9515 466,9483 "/>
  <polygon class="fil2 str0" points="327,12092 528,12079 552,11392 335,11381 "/>
  <polygon class="fil2 str0" points="334,11445 415,11448 410,12028 327,12027 "/>
  <polygon class="fil2 str5" points="415,11448 552,11392 335,11381 334,11445 "/>
  <polygon class="fil2 str5" points="327,12027 410,12028 528,12079 327,12092 "/>
  <polygon class="fil2 str0" points="834,12407 1014,9158 1023,8972 -76,8697 -27,12506 "/>
  <polygon class="fil2 str0" points="1583,10534 1422,10531 1441,9901 1626,9925 "/>
  <polygon class="fil2 str0" points="1440,9941 1476,9970 1460,10454 1423,10497 "/>
  <polygon class="fil2 str0" points="1476,9970 1626,9925 1441,9901 1440,9941 "/>
  <polygon class="fil2 str0" points="1460,10454 1583,10534 1422,10531 1424,10478 "/>
  <polyline class="fil2 str0" points="984,9824 1068,9840 1029,10472 942,10458 977,9821 "/>
  <polygon class="fil2 str0" points="3477,12126 3638,12130 3653,11427 3482,11409 "/>
  <polygon class="fil2 str0" points="3831,11423 3987,11432 3963,12114 3815,12116 "/>
  <polygon class="fil2 str0" points="4124,11432 4274,11435 4264,12082 4097,12079 4108,11419 "/>
  <polygon class="fil2 str0" points="4368,12063 4475,12066 4472,11434 4358,11419 "/>
  <polygon class="fil2 str0" points="4596,11996 4712,12004 4736,11419 4580,11424 "/>
  <polygon class="fil2 str0" points="4799,11969 4925,11963 4950,11416 4807,11413 "/>
  <polygon class="fil2 str0" points="5017,11416 5146,11405 5113,11945 5017,11934 "/>
  <polygon class="fil2 str0" points="5199,11925 5305,11925 5320,11402 5183,11401 "/>
  <polygon class="fil2 str0" points="5391,11872 5493,11875 5501,11397 5367,11392 "/>
  <polygon class="fil2 str0" points="5543,11880 5637,11884 5641,11390 5528,11388 "/>
  <polygon class="fil2 str0" points="5722,11870 5775,11872 5793,11394 5681,11392 "/>
  <polyline class="fil2 str0" points="5825,11860 5934,11853 5935,11385 5832,11394 5842,11849 "/>
  <polygon class="fil2 str0" points="5977,11817 6057,11823 6072,11396 5968,11398 "/>
  <polygon class="fil2 str0" points="3558,10917 3727,10922 3749,10458 3510,10460 3539,10917 "/>
  <polygon class="fil2 str0" points="3883,10935 4047,10935 4071,10495 3869,10479 "/>
  <polygon class="fil2 str0" points="4165,10941 4326,10951 4334,10533 4159,10511 "/>
  <polygon class="fil2 str0" points="4433,10976 4551,10976 4567,10551 4412,10533 "/>
  <polygon class="fil2 str0" points="4659,10981 4796,10989 4793,10605 4645,10589 "/>
  <polygon class="fil2 str0" points="4895,11000 4983,11000 4994,10613 4857,10602 "/>
  <polygon class="fil2 str0" points="5081,10631 5191,10643 5180,11041 5176,11042 5071,11025 "/>
  <polygon class="fil2 str0" points="5249,10668 5363,10669 5356,11022 5258,11021 5249,10657 "/>
  <polygon class="fil2 str0" points="5415,11021 5536,11015 5536,10674 5415,10664 "/>
  <polygon class="fil2 str0" points="5590,11037 5692,11037 5694,10685 5587,10696 "/>
  <polygon class="fil2 str0" points="5740,10736 5839,10744 5839,11056 5756,11053 "/>
  <polygon class="fil2 str0" points="5888,10739 5992,10741 5973,11047 5890,11045 "/>
  <polygon class="fil2 str0" points="6030,10766 6132,10774 6100,11056 6024,11058 "/>
  <polygon class="fil2 str0" points="6132,10774 6245,10782 6226,11069 6151,11072 "/>
  <polygon class="fil3 str0" points="3793,10000 3794,10054 3571,10154 3453,12094 3430,12361 3465,12358 3584,10476 3600,10164 3837,10073 3846,10021 "/>
  <polygon class="fil3 str0" points="4242,12264 4328,10811 4368,10266 4564,10194 4588,10223 4395,10285 4306,11630 4281,12300 4240,12283 "/>
  <polygon class="fil3 str5" points="4564,10194 4564,10136 4612,10158 4601,10224 "/>
  <polygon class="fil3 str0" points="5195,10263 5199,10322 5033,10386 4930,12199 4984,12192 5057,10609 5076,10408 5242,10343 5268,10276 "/>
  <polygon class="fil3 str0" points="5564,10454 5486,12091 5502,12008 5583,10480 5739,10429 5767,10365 5731,10359 5731,10419 "/>
  <polyline class="fil2 str6" points="5912,12060 5996,10539 6147,10491 6185,10440 "/>
  <path class="fil2 str0" d="M3513 9775c-754,-413 -1158,-660 -1214,-740 1166,354 2364,749 3594,1186 -1320,-247 -2113,-396 -2381,-446z"/>
  <polygon class="fil2 str0" points="4071,10495 3911,10526 3911,10935 4047,10935 "/>
  <polygon class="fil2 str0" points="3723,10475 3584,10476 3570,10917 3727,10922 3722,10458 "/>
  <polyline class="fil2 str0" points="4201,10926 4195,10553 4333,10556 4307,10950 4200,10943 "/>
  <polyline class="fil2 str0" points="4552,10582 4445,10582 4445,10976 4551,10976 4566,10583 4566,10583 4566,10583 4566,10583 "/>
  <polygon class="fil2 str0" points="4793,10641 4676,10628 4681,10982 4796,10989 "/>
  <polygon class="fil2 str0" points="4901,10625 4901,11000 4999,10985 4993,10639 "/>
  <polygon class="fil2 str0" points="5175,10668 5111,10674 5105,11012 5181,11014 5183,10996 "/>
  <polygon class="fil2 str0" points="5352,10690 5272,10690 5293,11013 5356,11014 "/>
  <polyline class="fil2 str0" points="5516,10687 5442,10688 5449,11000 5538,11004 5536,10688 "/>
  <polygon class="fil2 str0" points="5599,10707 5694,10708 5692,11037 5615,11029 "/>
  <polygon class="fil2 str0" points="5839,11029 5755,11034 5779,10739 5839,10774 "/>
  <path class="fil2 str0" d="M6148 11035c8,-10 7,-6 7,-14l1 -246 59 4 11 289 -75 3 -4 -63"/>
  <polygon class="fil2 str0" points="6081,10770 6103,11030 6100,11056 6025,11054 6047,10767 "/>
  <ellipse class="fil2 str0" cx="2381" cy="11362" rx="121" ry="126"/>
  <ellipse class="fil2 str0" cx="4497" cy="11336" rx="83" ry="88"/>
  <ellipse class="fil2 str0" cx="5710" cy="11310" rx="83" ry="85"/>
  <circle class="fil2 str0" cx="7073" cy="11303" r="67"/>
  <ellipse class="fil2 str0" cx="6476" cy="11291" rx="66" ry="68"/>
  <ellipse class="fil2 str0" cx="7551" cy="11346" rx="59" ry="56"/>
  <ellipse class="fil2 str0" cx="8010" cy="11378" rx="38" ry="43"/>
  <ellipse class="fil2 str0" cx="8203" cy="11404" rx="35" ry="34"/>
  <ellipse class="fil2 str0" cx="8358" cy="11429" rx="27" ry="30"/>
  <ellipse class="fil2 str0" cx="7886" cy="11431" rx="32" ry="28"/>
  <rect class="fil3 str0" x="7220" y="11859" width="11.8603" height="147.427"/>
  <rect class="fil3 str1" x="7417" y="11833" width="11.8603" height="147.427"/>
  <rect class="fil3 str1" x="7720" y="11768" width="11.8603" height="147.427"/>
  <rect class="fil3 str1" x="7903" y="11732" width="11.8603" height="139.493"/>
  <rect class="fil3 str1" x="8082" y="11694" width="11.8603" height="140.487"/>
  <rect class="fil3 str1" x="8251" y="11651" width="11.8603" height="137.728"/>
  <rect class="fil3 str1" x="8432" y="11605" width="11.8603" height="120.632"/>
  <polyline class="fil2 str1" points="6674,11993 6826,11968 6826,12042 6673,12067 6673,12005 6811,11981 6808,12021 6811,12023 6691,12043 6692,12015 6794,11996 "/>
  <polyline class="fil2 str1" points="6888,11961 7040,11936 7040,12011 6887,12036 6887,11973 7026,11949 7022,11990 7025,11992 6905,12011 6906,11983 7008,11964 "/>
  <polyline class="fil2 str1" points="7083,11933 7217,11906 7217,11985 7082,12012 7082,11945 7205,11920 7202,11963 7204,11965 7098,11986 7099,11956 7189,11936 "/>
  <polyline class="fil2 str1" points="7250,11900 7403,11873 7403,11953 7249,11979 7249,11913 7388,11887 7385,11931 7388,11933 7267,11954 7268,11923 7371,11903 "/>
  <polyline class="fil2 str1" points="7438,11866 7553,11842 7556,11922 7441,11946 7438,11879 7542,11856 7542,11900 7544,11902 7454,11921 7453,11890 7530,11872 "/>
  <polyline class="fil2 str1" points="7572,11831 7711,11807 7715,11887 7576,11911 7572,11844 7699,11821 7698,11864 7700,11866 7591,11885 7590,11855 7683,11837 "/>
  <polyline class="fil2 str1" points="7750,11793 7888,11769 7892,11848 7753,11872 7750,11806 7876,11782 7875,11826 7878,11828 7769,11847 7768,11817 7861,11798 "/>
  <polyline class="fil2 str1" points="7923,11758 8062,11734 8065,11813 7926,11837 7923,11771 8049,11747 8048,11791 8051,11793 7942,11812 7941,11782 8034,11763 "/>
  <polyline class="fil2 str1" points="8102,11715 8241,11679 8245,11759 8106,11794 8102,11728 8228,11694 8227,11738 8230,11740 8121,11767 8120,11737 8213,11711 "/>
  <polyline class="fil2 str1" points="8282,11673 8412,11640 8416,11715 8285,11748 8282,11685 8401,11654 8400,11695 8402,11697 8300,11723 8299,11694 8386,11670 "/>
  <polygon class="fil2 str2" points="3162,9143 3573,9151 3763,8958 3616,8918 3519,9151 3382,9141 3353,8910 3098,8918 3210,9141 "/>
  <polygon class="fil2 str0" points="2996,8920 3098,8918 3210,9141 3162,9143 "/>
  <polygon class="fil2 str0" points="3353,8910 3616,8918 3519,9150 3382,9141 "/>
  <polygon class="fil2 str0" points="3162,9143 3573,9151 3569,9432 3156,9300 "/>
  <polygon class="fil2 str0" points="2996,8920 2996,8577 3100,8555 3358,8555 3616,8563 3755,8606 3774,8614 3763,8958 3616,8918 3366,8910 3098,8918 "/>
  <polygon class="fil2 str0" points="3098,8918 3100,8555 3358,8555 3366,8910 "/>
  <polygon class="fil2 str2" points="3616,8563 3616,8918 3763,8958 3765,8610 "/>
  <polygon class="fil2 str2" points="2996,8577 3073,8512 3318,8491 3549,8496 3707,8542 3774,8614 3616,8563 3328,8555 3100,8555 "/>
  <polygon class="fil2 str0" points="3339,8491 3342,8408 3481,8410 3479,8495 "/>
  <polygon class="fil2 str2" points="3412,8147 3441,8228 3524,8231 3455,8263 3476,8341 3414,8290 3345,8346 3374,8263 3291,8233 3393,8222 "/>
  <polygon class="fil2 str0" points="3409,8402 3412,8299 3418,8302 3424,8404 "/>
  <polygon class="fil2 str0" points="4985,9904 5456,9910 6739,10308 6599,10308 6168,10334 "/>
  <polygon class="fil2 str0" points="6544,11161 6571,10404 6366,10416 6138,10322 6669,10308 6662,11199 "/>
  <polygon class="fil2 str0" points="6258,11149 6544,11161 6571,10404 6185,10406 "/>
  <polygon class="fil2 str3" points="3668,9055 3860,9073 3849,9116 3903,9110 3892,9062 4075,9073 4059,9132 4134,9132 4166,9089 4273,9100 4253,9656 4351,9689 4343,9583 4451,9583 4447,9721 4590,9717 4585,9567 4800,9572 4800,9502 5014,9524 5004,9497 5073,9508 5095,9551 5186,9636 5250,9647 5277,9577 5497,9594 5487,9674 5771,9685 5761,9647 6152,9658 6142,9728 6475,9738 6480,9701 6786,9717 6797,9787 7038,9792 7054,9841 7307,9830 7344,9900 7436,9900 7441,9996 8064,9991 8225,10023 8944,10066 9159,10098 9186,10066 9245,10061 9245,9991 9401,10002 9406,10050 9572,10055 9583,9980 9615,9991 9615,10055 9798,10055 9932,10071 9937,10120 9980,10120 9991,10184 10088,10189 10077,10238 10227,10254 10238,10522 10442,10512 10458,10270 10705,10275 10684,10157 10818,10147 10829,10308 10984,10297 10968,10034 11097,10034 11102,10130 11172,10136 11162,9524 11108,9502 11119,9465 11188,9459 11204,9432 11462,9449 11527,9465 11548,9427 11607,9416 11612,9481 11800,9492 11795,9524 11833,9513 11843,9551 11924,9556 11929,9599 11897,9599 11902,10420 11983,10426 11994,10522 12090,10522 12117,10436 12192,10420 12203,10485 12327,10485 12321,10393 12386,10404 12434,10393 12434,9679 12423,9626 12375,9620 12375,9572 12472,9561 12504,9513 12906,9502 12912,9610 13057,9610 13057,9653 13153,9653 13159,9690 13207,9690 13207,9738 13164,9738 13143,10565 13271,10555 13266,10447 13857,10453 13835,10528 14147,10538 14157,10882 14130,11306 16579,11344 16616,11328 16724,11274 16949,11274 16971,11671 16681,11682 15924,11650 13959,11505 12869,11451 12090,11381 11339,11322 10582,11312 9932,11274 9320,11258 8831,11226 8321,11236 7817,11226 7344,11204 6883,11177 6663,11176 6663,10308 6396,10201 5456,9910 5016,9915 4169,9628 3568,9432 3573,9151 "/>
  <rect class="fil2 str0" x="7301" y="11392" width="10.7341" height="289.913"/>
  <rect class="fil2 str0" x="6883" y="11384" width="8.04554" height="303.336"/>
  <rect class="fil2 str0" x="7164" y="11395" width="8.04554" height="303.336"/>
  <rect class="fil2 str0" x="7446" y="11365" width="8.04554" height="303.336"/>
  <rect class="fil2 str0" x="7589" y="11389" width="8.04554" height="284.526"/>
  <rect class="fil2 str0" x="7704" y="11379" width="8.04554" height="284.526"/>
  <rect class="fil2 str0" x="7846" y="11342" width="8.04554" height="284.526"/>
  <polygon class="fil2 str0" points="6891,11432 7059,11432 7164,11432 7301,11419 7446,11419 7560,11402 7704,11402 7846,11402 7846,11627 7704,11663 7597,11674 7446,11669 7301,11682 7173,11682 6891,11682 "/>
  <polygon class="fil2 str0" points="6255,11204 6534,11215 6687,11274 6662,11199 6544,11161 6258,11144 6254,11222 "/>
  <polyline class="fil2 str0" points="6716,11274 6966,11344 6974,11309 6663,11145 6687,11274 "/>
  <polygon class="fil2 str0" points="6934,11349 6934,11682 6558,11703 6560,11225 "/>
  <polygon class="fil2 str0" points="6222,11735 6558,11703 6560,11225 6255,11204 "/>
  <polygon class="fil2 str0" points="6663,10890 6971,11030 7001,10989 6666,10777 "/>
  <polygon class="fil2 str0" points="6908,11001 6911,11276 6663,11132 6663,10890 "/>
  <polygon class="fil2 str0" points="1682,11590 1176,11301 1159,11566 1701,11588 2047,11545 1680,11220 1176,11295 "/>
  <path class="fil2 str0" d="M7919 11431c1392,72 2245,130 2558,176 2439,175 3718,327 3919,370 2649,421 4224,711 4725,870 3635,753 5582,1152 5841,1197 1327,192 2186,336 2577,430"/>
  <path class="fil2 str0" d="M10960 11642c1467,114 2314,183 2539,209 890,72 1394,137 1486,169 1492,210 3138,487 4604,797 756,138 1215,224 1380,258 1737,335 2707,507 2910,515 2096,327 3176,503 3243,526 333,54 499,81 499,81 -54,184 -81,276 -81,276"/>
  <rect class="fil2 str0" x="26583" y="14020" width="12.4285" height="274.431"/>
  <rect class="fil2 str0" x="25742" y="13884" width="16.2331" height="277.992"/>
  <rect class="fil2 str0" x="25052" y="13790" width="12.4285" height="274.431"/>
  <rect class="fil2 str0" x="24407" y="13650" width="12.4285" height="274.431"/>
  <rect class="fil2 str0" x="23817" y="13559" width="12.4285" height="274.431"/>
  <rect class="fil2 str0" x="23244" y="13466" width="12.4285" height="239.996"/>
  <rect class="fil2 str0" x="22713" y="13377" width="12.4285" height="203.989"/>
  <rect class="fil2 str0" x="22239" y="13291" width="12.4285" height="195.7"/>
  <rect class="fil2 str0" x="21854" y="13221" width="12.4285" height="191.003"/>
  <rect class="fil2 str0" x="21077" y="13064" width="12.4285" height="186.052"/>
  <rect class="fil2 str0" x="21456" y="13144" width="12.4285" height="188.314"/>
  <rect class="fil2 str0" x="20746" y="13009" width="12.4285" height="173.755"/>
  <rect class="fil2 str0" x="20433" y="12951" width="12.4285" height="158.77"/>
  <rect class="fil2 str0" x="20139" y="12896" width="12.4285" height="167.668"/>
  <ellipse class="fil2 str0" cx="15589" cy="9804" rx="1654" ry="1648"/>
  <ellipse class="fil2 str0" cx="15619" cy="9828" rx="1656" ry="1640"/>
  <polygon class="fil2 str0" points="14881,11624 15619,9828 15670,9863 14941,11577 "/>
  <polygon class="fil2 str0" points="15520,9906 14532,11624 14585,11624 "/>
  <polyline class="fil2 str0" points="15570,9946 14789,11608 14709,11619 15586,9909 15586,9909 15586,9909 "/>
  <polygon class="fil2 str0" points="16470,11560 15670,9863 16389,11522 "/>
  <polygon class="fil2 str0" points="15659,9960 16287,11586 16336,11560 "/>
  <polyline class="fil2 str0" points="15648,10099 16083,11538 16142,11517 15713,10244 15627,10056 15664,10164 "/>
  <polygon class="fil2 str0" points="14599,11599 15520,9906 15644,9846 14752,11474 14709,11619 "/>
  <polyline class="fil2 str0" points="15890,8242 15619,9828 15969,8225 15893,8210 15896,8211 "/>
  <polygon class="fil2 str0" points="15670,9863 16440,8403 16383,8373 "/>
  <polygon class="fil2 str0" points="15644,9846 16853,8741 16803,8681 "/>
  <polygon class="fil2 str0" points="17241,9729 17270,9697 15691,9822 17127,9196 17113,9163 15644,9846 "/>
  <polygon class="fil2 str0" points="15670,9863 17220,10250 17196,10194 "/>
  <polygon class="fil2 str0" points="16712,11061 16646,11071 15619,9828 "/>
  <polygon class="fil2 str0" points="15662,9881 17039,10673 17025,10622 "/>
  <polygon class="fil2 str0" points="15758,11444 15615,9900 15707,11448 "/>
  <polygon class="fil2 str0" points="15245,11426 15604,9865 15326,11431 "/>
  <polygon class="fil2 str0" points="14384,10921 15520,9906 14451,10931 "/>
  <polyline class="fil2 str0" points="14105,10494 15582,9876 14090,10461 14125,10538 14123,10534 14167,10475 "/>
  <polygon class="fil2 str0" points="13938,9900 15582,9876 13937,9858 "/>
  <polyline class="fil2 str0" points="14015,9417 15582,9876 14025,9382 13993,9374 "/>
  <polyline class="fil2 str0" points="14210,8895 15582,9876 14238,8854 14236,8857 "/>
  <polygon class="fil2 str0" points="14634,8509 15615,9900 14628,8463 "/>
  <polygon class="fil2 str0" points="15604,9865 15274,8186 15306,8180 "/>
  <ellipse class="fil2 str0" cx="15562" cy="9825" rx="1278" ry="1337"/>
  <polyline class="fil2 str0" points="16039,11391 15734,11189 15525,11466 15350,11144 14994,11348 14931,10988 14618,11092 14640,10750 14234,10727 14396,10372 14012,10227 14286,9895 13947,9611 14328,9478 14137,9094 14139,9091 "/>
  <polygon class="fil2 str0" points="16749,11602 16760,11345 19562,11356 19557,11678 19068,11694 18537,11704 18510,11699 18070,11823 17603,11823 16948,11796 16701,11774 "/>
  <rect class="fil2 str0" x="16670" y="11301" width="567.814" height="45.8078"/>
  <rect class="fil2 str0" x="16921" y="11162" width="2866.93" height="42.9569"/>
  <rect class="fil2 str0" x="16887" y="10825" width="2514" height="337"/>
  <rect class="fil2 str0" x="16824" y="10711" width="2577" height="114"/>
  <rect class="fil2 str0" x="17243" y="10658" width="869.74" height="53.6809"/>
  <rect class="fil2 str0" x="17420" y="10599" width="483.189" height="59.0581"/>
  <path class="fil2 str0" d="M19337 10153c-730,-7 -1095,-11 -1095,-11 -13,174 175,237 564,188 359,54 536,-5 532,-177z"/>
  <path class="fil2 str0" d="M20062 10754c-2047,122 -2863,70 -2448,-156 366,-208 737,-323 1111,-344 450,-65 896,102 1337,499z"/>
  <rect class="fil2 str0" x="18505" y="9954" width="564" height="129"/>
  <rect class="fil2 str0" x="18607" y="10083" width="386.531" height="66.4239"/>
  <rect class="fil2 str0" x="18617" y="9954" width="48.3138" height="53.6809"/>
  <rect class="fil2 str0" x="18800" y="10051" width="59.0682" height="32.2126"/>
  <rect class="fil2 str0" x="18977" y="9954" width="37.5797" height="53.6809"/>
  <path class="fil2 str0" d="M20968 11223c-3,-513 -4,-769 -4,-769 290,-155 790,-212 1498,-172 -8,1006 -18,1580 -32,1723 -462,-39 -736,-48 -821,-27 7,-430 11,-644 11,-644 -526,-14 -789,-21 -789,-21 1,-47 2,-77 1,-90 91,0 137,0 137,0z"/>
  <polygon class="fil2 str0" points="22461,10282 24538,10366 24543,11956 22431,11981 "/>
  <polygon class="fil2 str0" points="20930,11315 20925,11972 21608,11978 21619,11334 "/>
  <polygon class="fil2 str0" points="21690,10455 21668,11835 22237,11851 22286,10417 21974,10407 "/>
  <polygon class="fil2 str0" points="21529,11266 21298,11266 21308,10498 21561,10498 "/>
  <polygon class="fil2 str0" points="21196,11217 21035,11212 21040,10530 21217,10476 21228,11201 "/>
  <polyline class="fil2 str0" points="23392,10927 23719,10933 23923,11180 24084,11190 24090,11190 24084,11190 "/>
  <polyline class="fil2 str0" points="23370,11400 23714,11405 23896,11663 24084,11663 "/>
  <polyline class="fil2 str0" points="23316,11931 23612,11931 23896,11663 "/>
  <polyline class="fil2 str0" points="23714,11405 23724,11357 23923,11180 "/>
  <line class="fil2 str0" x1="23397" y1="10804" x2="23397" y2= "11931" />
  <line class="fil2 str0" x1="23719" y1="10933" x2="23732" y2= "11965" />
  <line class="fil2 str0" x1="24084" y1="11190" x2="24094" y2= "11961" />
  <line class="fil2 str0" x1="23955" y1="11182" x2="23965" y2= "11963" />
  <polyline class="fil2 str0" points="23397,10745 23392,10589 23934,10621 23923,11180 "/>
  <polyline class="fil2 str0" points="23750,10970 23771,10612 23392,10589 "/>
  <polyline class="fil2 str0" points="23520,10929 23520,10654 23394,10658 23394,10667 "/>
  <rect class="fil2 str0" x="23000" y="10573" width="113" height="483"/>
  <rect class="fil2 str0" x="22753" y="10552" width="118" height="489"/>
  <rect class="fil2 str0" x="22554" y="10557" width="118" height="472"/>
  <rect class="fil2 str0" x="22554" y="11250" width="102" height="591"/>
  <rect class="fil2 str0" x="22753" y="11244" width="123" height="591"/>
  <rect class="fil2 str0" x="22957" y="11233" width="113" height="607"/>
  <rect class="fil2 str0" x="22554" y="10557" width="118" height="236"/>
  <rect class="fil2 str0" x="22753" y="10578" width="118" height="217"/>
  <rect class="fil2 str0" x="23000" y="10600" width="113" height="258"/>
  <rect class="fil2 str0" x="22554" y="11250" width="102" height="258"/>
  <rect class="fil2 str0" x="22753" y="11244" width="123" height="258"/>
  <rect class="fil2 str0" x="22957" y="11233" width="113" height="303"/>
  <rect class="fil2 str0" x="24041" y="10680" width="118" height="403"/>
  <rect class="fil2 str0" x="24240" y="10643" width="140" height="387"/>
  <rect class="fil2 str0" x="24261" y="11357" width="123" height="344"/>
  <rect class="fil2 str0" x="24116" y="11330" width="53.6809" height="386.551"/>
  <polygon class="fil2 str0" points="22580,10287 22592,10084 23869,10111 23860,10339 "/>
  <polygon class="fil2 str0" points="22892,10091 22957,9961 23043,9940 23751,9982 23749,10109 "/>
  <polyline class="fil2 str0" points="23043,9940 23198,9843 23413,9838 23461,9965 "/>
  <line class="fil2 str0" x1="21682" y1="10970" x2="22266" y2= "10990" />
  <line class="fil2 str0" x1="21676" y1="11330" x2="22254" y2= "11349" />
  <line class="fil2 str0" x1="21675" y1="11421" x2="22251" y2= "11441" />
  <polyline class="fil2 str0" points="21689,10519 22281,10539 22282,10539 "/>
  <polyline class="fil2 str0" points="21781,11838 21832,10431 21943,10412 21902,11841 22027,11845 22028,10374 22173,10413 22132,11848 22132,11848 "/>
  <polygon class="fil2 str0" points="20321,10251 22377,9999 22822,9929 23043,9940 23730,9880 24820,9929 23805,9558 23437,9901 23783,9564 21233,9945 20782,10063 "/>
  <polygon class="fil2 str0" points="20321,10251 20262,11706 24138,11781 24841,11792 24820,9929 23437,9901 "/>
  <polygon class="fil2 str0" points="23805,9558 23843,8860 23848,8667 23671,8673 23624,9588 "/>
  <polyline class="fil2 str0" points="23669,8860 23843,8860 23837,9105 23649,9102 23639,9293 23820,9288 23808,9505 23629,9496 23629,9496 "/>
  <polyline class="fil2 str2" points="23631,8846 23891,8850 23887,8848 23886,8848 23882,8846 23880,8846 "/>
  <polygon class="fil2 str0" points="27461,9651 26895,9640 24820,9929 26030,9447 27093,9216 27461,9216 "/>
  <polyline class="fil2 str0" points="27461,9651 27461,9646 27461,11954 24833,11900 24820,9929 "/>
  <path class="fil2 str0" d="M7298 11317c-16,-119 -73,-217 -170,-295 -34,-69 -19,-211 45,-425 -152,-468 -281,-762 -387,-880"/>
  <path class="fil2 str0" d="M7338 11295c-68,-181 -38,-330 89,-447 164,67 328,-78 492,-434"/>
  <path class="fil2 str0" d="M7428 10847c120,-415 225,-679 313,-792"/>
  <path class="fil2 str0" d="M7204 11053c85,-474 60,-862 -76,-1163"/>
  <path class="fil2 str0" d="M7236 10141c43,-242 164,-425 362,-550"/>
  <path class="fil2 str0" d="M7531 10624c31,-178 149,-327 353,-447"/>
  <path class="fil2 str0" d="M7589 10243c35,-111 15,-233 -58,-367"/>
  <path class="fil2 str0" d="M7133 9837c-29,-133 -10,-211 58,-234"/>
  <path class="fil2 str0" d="M7137 9984c-59,-132 -126,-246 -201,-340"/>
  <path class="fil2 str0" d="M7122 10808c-80,-374 -185,-533 -315,-475"/>
  <path class="fil2 str0" d="M7238 10819c-28,258 27,276 163,55"/>
  <line class="fil2 str0" x1="8741" y1="11429" x2="8739" y2= "11017" />
  <line class="fil2 str0" x1="8589" y1="11422" x2="8586" y2= "11011" />
  <line class="fil2 str0" x1="9448" y1="11474" x2="9445" y2= "11062" />
  <line class="fil2 str0" x1="9287" y1="11407" x2="9284" y2= "10995" />
  <line class="fil2 str0" x1="8741" y1="11429" x2="8739" y2= "11017" />
  <line class="fil2 str0" x1="8873" y1="11402" x2="8871" y2= "10991" />
  <line class="fil2 str0" x1="9897" y1="11425" x2="9895" y2= "11013" />
  <line class="fil2 str0" x1="10903" y1="11474" x2="10901" y2= "11062" />
  <line class="fil2 str0" x1="10935" y1="11474" x2="10933" y2= "11062" />
  <line class="fil2 str0" x1="10478" y1="11451" x2="10476" y2= "11040" />
  <line class="fil2 str0" x1="10420" y1="11456" x2="10418" y2= "11044" />
  <line class="fil2 str0" x1="10223" y1="11456" x2="10221" y2= "11044" />
  <line class="fil2 str0" x1="10018" y1="11456" x2="10015" y2= "11044" />
  <line class="fil2 str0" x1="9946" y1="11447" x2="9944" y2= "11035" />
  <line class="fil2 str0" x1="10583" y1="11567" x2="10581" y2= "11155" />
  <line class="fil2 str0" x1="10832" y1="11514" x2="10830" y2= "11102" />
  <line class="fil2 str0" x1="11248" y1="11510" x2="11246" y2= "11098" />
  <line class="fil2 str0" x1="11794" y1="11532" x2="11792" y2= "11120" />
  <line class="fil2 str0" x1="11879" y1="11532" x2="11877" y2= "11120" />
  <line class="fil2 str0" x1="11941" y1="11434" x2="11939" y2= "11022" />
  <line class="fil2 str0" x1="11642" y1="11353" x2="11639" y2= "10941" />
  <line class="fil2 str0" x1="11463" y1="11349" x2="11460" y2= "10937" />
  <line class="fil2 str0" x1="11464" y1="11559" x2="11462" y2= "11147" />
  <line class="fil2 str0" x1="11176" y1="11532" x2="11174" y2= "11120" />
  <line class="fil2 str0" x1="11082" y1="11281" x2="11080" y2= "10870" />
  <line class="fil2 str0" x1="10926" y1="11040" x2="10924" y2= "10628" />
  <line class="fil2 str0" x1="10577" y1="11219" x2="10575" y2= "10807" />
  <line class="fil2 str0" x1="10156" y1="11402" x2="10154" y2= "10991" />
  <line class="fil2 str0" x1="9664" y1="11375" x2="9662" y2= "10964" />
  <line class="fil2 str0" x1="9447" y1="11384" x2="9445" y2= "10973" />
  <line class="fil2 str0" x1="9069" y1="11335" x2="9067" y2= "10923" />
  <line class="fil2 str0" x1="8684" y1="11268" x2="8682" y2= "10856" />
  <line class="fil2 str0" x1="8492" y1="11416" x2="8490" y2= "11004" />
  <line class="fil2 str0" x1="8232" y1="11371" x2="8230" y2= "10959" />
  <line class="fil2 str0" x1="8313" y1="11362" x2="8311" y2= "10950" />
  <line class="fil2 str0" x1="12536" y1="11733" x2="12534" y2= "11322" />
  <line class="fil2 str0" x1="12778" y1="11715" x2="12776" y2= "11304" />
  <line class="fil2 str0" x1="12670" y1="11724" x2="12668" y2= "11313" />
  <line class="fil2 str0" x1="12481" y1="11622" x2="12478" y2= "11210" />
  <line class="fil2 str0" x1="11942" y1="11575" x2="11940" y2= "11164" />
  <line class="fil2 str0" x1="11943" y1="11639" x2="11940" y2= "11228" />
  <line class="fil2 str0" x1="12481" y1="11622" x2="12478" y2= "11210" />
  <line class="fil2 str0" x1="12535" y1="11527" x2="12533" y2= "11116" />
  <line class="fil2 str0" x1="12232" y1="11492" x2="12230" y2= "11080" />
  <line class="fil2 str0" x1="12535" y1="11527" x2="12533" y2= "11116" />
  <line class="fil2 str0" x1="12366" y1="11518" x2="12364" y2= "11107" />
  <line class="fil2 str0" x1="13064" y1="11667" x2="13062" y2= "11255" />
  <line class="fil2 str0" x1="13415" y1="11684" x2="13413" y2= "11272" />
  <line class="fil2 str0" x1="13556" y1="11691" x2="13554" y2= "11279" />
  <line class="fil2 str0" x1="13771" y1="11563" x2="13769" y2= "11152" />
  <line class="fil2 str0" x1="13887" y1="11554" x2="13885" y2= "11143" />
  <line class="fil2 str0" x1="14013" y1="11572" x2="14010" y2= "11160" />
  <line class="fil2 str0" x1="14254" y1="11572" x2="14252" y2= "11160" />
  <line class="fil2 str0" x1="14362" y1="11599" x2="14359" y2= "11187" />
  <line class="fil2 str0" x1="14469" y1="11626" x2="14467" y2= "11214" />
  <line class="fil2 str0" x1="14469" y1="11626" x2="14467" y2= "11214" />
  <line class="fil2 str0" x1="14469" y1="11626" x2="14467" y2= "11214" />
  <polygon class="fil2 str0" points="14254,11572 14244,11729 14620,11800 14629,11657 "/>
  <polygon class="fil2 str0" points="14629,11657 14674,11648 15246,11648 15255,11791 14620,11800 "/>
  <polygon class="fil2 str0" points="15246,11648 14954,11547 14254,11572 14629,11657 "/>
  <line class="fil2 str7" x1="26391" y1="12503" x2="26349" y2= "13982" />
  <line class="fil2 str0" x1="23244" y1="13466" x2="23268" y2= "12270" />
  <line class="fil2 str0" x1="21586" y1="13111" x2="21613" y2= "12198" />
  <line class="fil2 str0" x1="19143" y1="12046" x2="19134" y2= "12646" />
  <line class="fil2 str0" x1="17712" y1="11930" x2="17705" y2= "12433" />
  <line class="fil2 str0" x1="16701" y1="11774" x2="16698" y2= "12229" />
  <line class="fil2 str0" x1="15976" y1="11742" x2="15990" y2= "12133" />
  <line class="fil2 str0" x1="15152" y1="11724" x2="15120" y2= "12034" />
  <polyline class="fil2 str0" points="23653,12798 23635,12082 23635,12073 "/>
  <polyline class="fil2 str0" points="25639,12860 25684,12145 25648,12145 25613,12145 "/>
  <line class="fil2 str0" x1="22293" y1="12664" x2="22346" y2= "11998" />
  <line class="fil2 str0" x1="20745" y1="12538" x2="20754" y2= "12064" />
  <line class="fil2 str0" x1="20145" y1="12350" x2="20154" y2= "11849" />
  <line class="fil2 str0" x1="18669" y1="12167" x2="18659" y2= "11702" />
  <ellipse class="fil2 str0" cx="26382" cy="12332" rx="210" ry="215"/>
  <ellipse class="fil2 str0" cx="23273" cy="12185" rx="161" ry="130"/>
  <ellipse class="fil2 str0" cx="23688" cy="12016" rx="76" ry="84"/>
  <ellipse class="fil2 str0" cx="25680" cy="12052" rx="125" ry="137"/>
  <ellipse class="fil2 str0" cx="21608" cy="12124" rx="107" ry="146"/>
  <ellipse class="fil2 str0" cx="20172" cy="11742" rx="94" ry="98"/>
  <ellipse class="fil2 str0" cx="20758" cy="11970" rx="89" ry="103"/>
  <ellipse class="fil2 str0" cx="17697" cy="11861" rx="66" ry="79"/>
  <ellipse class="fil2 str0" cx="15969" cy="11688" rx="50" ry="42"/>
  <ellipse class="fil2 str0" cx="15161" cy="11699" rx="52" ry="49"/>
  <polyline class="fil2 str0" points="26657,14066 26657,14254 27485,14424 27556,14227 26711,14075 26715,14209 27404,14366 27458,14245 26769,14120 26800,14173 27377,14312 27373,14312 "/>
  <polyline class="fil2 str0" points="25807,13927 25807,14133 26554,14249 26536,14052 25865,13941 25865,14097 26505,14200 26483,14106 26469,14102 25941,14008 "/>
  <polyline class="fil2 str0" points="25113,13824 25113,14026 25691,14120 25686,13936 25163,13847 25181,13990 25641,14079 25623,13954 25230,13887 25234,13936 25543,14026 "/>
  <polyline class="fil2 str0" points="24465,13726 24469,13900 25006,14008 25006,13838 24514,13730 24518,13878 24961,13950 24952,13882 24590,13806 "/>
  <polyline class="fil2 str0" points="23878,13590 23874,13793 24407,13924 24366,13708 23919,13632 23937,13757 24344,13860 24331,13730 23968,13663 23982,13712 24254,13771 "/>
  <polyline class="fil2 str2" points="23286,13533 23285,13686 23782,13782 23784,13615 23780,13616 23305,13537 23313,13671 23763,13747 23760,13746 23758,13643 23333,13566 23341,13660 23723,13719 23716,13668 23713,13665 23401,13613 "/>
  <polyline class="fil2 str0" points="22757,13441 22761,13573 23211,13658 23211,13526 22786,13447 22788,13544 23164,13617 23144,13561 22835,13508 "/>
  <polyline class="fil2 str0" points="22280,13349 22274,13467 22692,13552 22667,13438 22661,13436 22305,13371 22303,13447 22636,13514 22620,13463 22356,13412 "/>
  <polyline class="fil2 str0" points="21898,13273 21896,13387 22213,13458 22204,13344 21929,13293 21929,13365 22180,13432 22171,13367 21949,13327 "/>
  <polyline class="fil2 str0" points="21493,13199 21500,13318 21824,13382 21817,13266 21524,13203 21533,13300 21797,13351 21788,13288 21558,13233 21560,13282 21741,13311 "/>
  <polyline class="fil2 str0" points="21131,13130 21133,13239 21412,13288 21412,13194 21157,13156 21169,13221 21327,13241 21386,13250 21377,13210 21186,13190 "/>
  <polyline class="fil2 str0" points="20784,13062 20786,13174 21050,13228 21050,13123 20811,13069 20811,13159 21016,13201 21025,13143 20833,13107 "/>
  <polyline class="fil2 str0" points="20473,13002 20480,13101 20719,13152 20714,13062 20493,13016 20495,13094 20661,13118 20667,13118 20688,13076 20560,13069 "/>
  <polyline class="fil2 str0" points="20166,12944 20180,13036 20397,13087 20403,13089 20406,13000 20186,12962 20195,13013 20370,13067 20370,13033 20251,13000 "/>
  <line class="fil2 str0" x1="20833" y1="13107" x2="20992" y2= "13168" />
  <rect class="fil2 str0" x="19822" y="12836" width="12.4285" height="162.95"/>
  <rect class="fil2 str0" x="19484" y="12780" width="12.4285" height="145.956"/>
  <rect class="fil2 str0" x="19196" y="12717" width="12.4285" height="145.956"/>
  <rect class="fil2 str0" x="18957" y="12675" width="12.4285" height="135.222"/>
  <rect class="fil2 str0" x="18709" y="12628" width="12.4285" height="115.965"/>
  <rect class="fil2 str0" x="18464" y="12569" width="12.4285" height="119.324"/>
  <rect class="fil2 str0" x="18226" y="12525" width="12.4285" height="112.617"/>
  <rect class="fil2 str0" x="17999" y="12487" width="12.4285" height="106.134"/>
  <polyline class="fil2 str0" points="20062,10754 20300,10764 20267,11582 19560,11517 19557,11678 20078,11742 "/>
  <polyline class="fil2 str0" points="21436,9915 21407,9300 20799,9246 20781,9837 20459,9855 20501,10231 19975,10177 19993,10445 19646,10449 19635,9962 19582,9658 19349,9586 19337,10153 18993,10116 18242,10142 18222,9837 17774,9837 17720,10320 17398,10338 17420,10599 "/>
  <polyline class="fil2 str0" points="19862,12891 19861,12975 20112,13033 20108,12942 19884,12896 19884,12963 20075,13004 20065,12964 19975,12947 "/>
  <polyline class="fil2 str0" points="19519,12827 19519,12910 19799,12965 19801,12884 19542,12833 19538,12893 19764,12938 19773,12899 19622,12881 "/>
  <polyline class="fil2 str0" points="19234,12781 19233,12849 19453,12896 19451,12820 19263,12790 19263,12835 19427,12870 19424,12835 "/>
  <polyline class="fil2 str0" points="18987,12726 18984,12790 19177,12844 19177,12763 19010,12739 19017,12774 19144,12819 19149,12783 19148,12782 19075,12762 19073,12762 19066,12771 "/>
  <polyline class="fil2 str0" points="18744,12681 18744,12729 18935,12777 18936,12721 18755,12691 18759,12723 18917,12761 18915,12761 18913,12731 18909,12731 18809,12720 "/>
  <polyline class="fil2 str0" points="18490,12637 18489,12673 18688,12721 18682,12681 18503,12645 18510,12670 18623,12687 18624,12687 "/>
  <polyline class="fil2 str0" points="18258,12588 18253,12624 18444,12663 18437,12635 18274,12602 "/>
  <polyline class="fil2 str0" points="18037,12549 18037,12577 18197,12609 18195,12592 18063,12567 "/>
  <line class="fil2 str0" x1="18057" y1="12550" x2="18174" y2= "12574" />
  <rect class="fil2 str0" x="17773" y="12451" width="12.4285" height="98.606"/>
  <rect class="fil2 str0" x="17569" y="12422" width="12.4285" height="98.606"/>
  <rect class="fil2 str0" x="17371" y="12384" width="12.4285" height="98.606"/>
  <rect class="fil2 str0" x="17174" y="12344" width="12.4285" height="98.606"/>
  <rect class="fil2 str0" x="17015" y="12319" width="12.4285" height="98.606"/>
  <rect class="fil2 str0" x="16861" y="12295" width="12.4285" height="98.606"/>
  <rect class="fil2 str0" x="16715" y="12265" width="12.4285" height="98.606"/>
  <rect class="fil2 str0" x="16575" y="12245" width="12.4285" height="90.6213"/>
  <rect class="fil2 str0" x="16456" y="12230" width="12.4285" height="86.6848"/>
  <rect class="fil2 str0" x="16334" y="12207" width="12.4285" height="82.9309"/>
  <rect class="fil2 str0" x="16202" y="12186" width="12.4285" height="87.6486"/>
  <rect class="fil2 str0" x="16069" y="12166" width="12.4285" height="87.6486"/>
  <rect class="fil2 str0" x="15952" y="12151" width="12.4285" height="78.4668"/>
  <rect class="fil2 str0" x="15835" y="12124" width="12.4285" height="87.6486"/>
  <rect class="fil2 str0" x="15704" y="12115" width="12.4285" height="80.6583"/>
  <rect class="fil2 str0" x="15598" y="12097" width="12.4285" height="76.813"/>
  <polyline class="fil2 str0" points="7338,11295 7374,11419 7312,11419 7298,11317 7285,11252 "/>
  <polyline class="fil2 str0" points="17806,12492 17805,12534 17981,12568 17982,12532 17973,12530 17826,12501 17828,12523 17957,12544 "/>
  <polyline class="fil2 str2" points="17599,12451 17598,12500 17754,12530 17752,12483 17611,12461 17730,12506 "/>
  <polyline class="fil2 str0" points="17407,12422 17405,12456 17547,12489 17549,12447 17434,12441 17435,12439 "/>
  <polyline class="fil2 str0" points="17208,12391 17210,12422 17338,12449 17342,12416 17235,12396 "/>
  <polyline class="fil2 str0" points="17055,12352 17055,12404 17153,12420 17149,12380 17077,12375 "/>
  <polyline class="fil2 str0" points="16912,12336 16915,12368 16991,12388 16978,12349 16934,12344 16940,12341 16929,12346 "/>
  <polyline class="fil2 str0" points="16748,12306 16747,12336 16834,12362 16830,12327 16792,12314 "/>
  <polyline class="fil2 str0" points="16608,12281 16606,12321 16693,12338 16680,12306 16680,12305 "/>
  <polyline class="fil2 str0" points="16548,12294 16498,12283 16541,12276 16545,12305 "/>
  <polyline class="fil2 str0" points="16369,12256 16431,12265 16377,12278 16425,12290 "/>
  <polyline class="fil2 str0" points="16230,12227 16311,12248 16245,12258 16296,12272 "/>
  <polyline class="fil2 str0" points="16112,12199 16172,12237 16081,12237 16116,12225 "/>
  <line class="fil2 str0" x1="15965" y1="12190" x2="16049" y2= "12221" />
  <polyline class="fil2 str0" points="15906,12192 15872,12172 15895,12199 15952,12199 15952,12190 "/>
  <polyline class="fil2 str0" points="15747,12149 15835,12168 15736,12178 "/>
  <polyline class="fil2 str0" points="15611,12136 15635,12136 15682,12145 15671,12154 "/>
  <line class="fil2 str0" x1="15483" y1="12153" x2="15483" y2= "12078" />
  <line class="fil2 str0" x1="15354" y1="12131" x2="15355" y2= "12062" />
  <line class="fil2 str0" x1="15253" y1="12108" x2="15253" y2= "12044" />
  <line class="fil2 str0" x1="15150" y1="12098" x2="15151" y2= "12035" />
  <line class="fil2 str0" x1="15050" y1="12082" x2="15050" y2= "12021" />
  <line class="fil2 str0" x1="14969" y1="12069" x2="14972" y2= "12016" />
  <line class="fil2 str0" x1="14882" y1="12055" x2="14880" y2= "11997" />
  <line class="fil2 str0" x1="14796" y1="12041" x2="14797" y2= "11984" />
  <line class="fil2 str0" x1="14728" y1="12030" x2="14724" y2= "11974" />
  <line class="fil2 str0" x1="14646" y1="12017" x2="14643" y2= "11963" />
  <line class="fil2 str0" x1="14548" y1="11994" x2="14547" y2= "11951" />
  <line class="fil2 str0" x1="14455" y1="11987" x2="14451" y2= "11940" />
  <line class="fil2 str0" x1="14327" y1="11965" x2="14323" y2= "11926" />
  <line class="fil2 str0" x1="14387" y1="11975" x2="14384" y2= "11933" />
  <line class="fil2 str0" x1="14256" y1="11947" x2="14259" y2= "11920" />
  <line class="fil2 str0" x1="14165" y1="11941" x2="14168" y2= "11911" />
  <line class="fil2 str0" x1="14077" y1="11930" x2="14080" y2= "11902" />
  <line class="fil2 str0" x1="14008" y1="11921" x2="14010" y2= "11895" />
  <line class="fil2 str0" x1="13934" y1="11912" x2="13937" y2= "11889" />
  <line class="fil2 str0" x1="13873" y1="11905" x2="13867" y2= "11882" />
  <polyline class="fil2 str0" points="15498,12111 15577,12125 15576,12146 15502,12133 15497,12117 15498,12116 15502,12115 "/>
  <polyline class="fil2 str0" points="15378,12097 15456,12111 15455,12133 15381,12119 15376,12103 15378,12102 15381,12102 "/>
  <polyline class="fil2 str0" points="15263,12078 15342,12092 15341,12114 15267,12100 15262,12084 15263,12083 15267,12083 "/>
  <polyline class="fil2 str0" points="15153,12060 15232,12074 15231,12096 15157,12082 15152,12067 15153,12065 15157,12065 "/>
  <polyline class="fil2 str0" points="15060,12046 15139,12060 15138,12082 15064,12068 15059,12053 15060,12051 15064,12051 "/>
  <polyline class="fil2 str0" points="14973,12034 15052,12048 15050,12069 14977,12056 14972,12040 14973,12039 14976,12039 "/>
  <polyline class="fil2 str0" points="14889,12016 14968,12030 14967,12051 14893,12037 14888,12022 14889,12021 14893,12020 "/>
  <polyline class="fil2 str0" points="14795,12002 14874,12016 14873,12037 14799,12023 14794,12008 14795,12007 14799,12006 "/>
  <polyline class="fil2 str0" points="14804,12006 14883,12020 14882,12041 14808,12028 14803,12012 14804,12011 14808,12011 "/>
  <polyline class="fil2 str0" points="14713,11988 14792,12002 14791,12023 14717,12010 14712,11994 14713,11993 14716,11993 "/>
  <polyline class="fil2 str0" points="14641,11982 14720,11996 14719,12017 14645,12003 14640,11988 14641,11987 14645,11986 "/>
  <polyline class="fil2 str0" points="14551,11968 14630,11982 14629,12003 14555,11989 14550,11974 14551,11973 14554,11972 "/>
  <polyline class="fil2 str0" points="14465,11956 14544,11970 14542,11991 14469,11978 14464,11962 14465,11961 14468,11960 "/>
  <polyline class="fil2 str0" points="14373,11940 14452,11954 14451,11975 14377,11962 14372,11946 14373,11945 14376,11945 "/>
  <polyline class="fil2 str0" points="14318,11946 14370,11956 14370,11970 14320,11961 14317,11950 14318,11950 14320,11949 "/>
  <polyline class="fil2 str1" points="14361,11942 14440,11956 14439,11978 14365,11964 14360,11948 14361,11947 14364,11947 "/>
  <polyline class="fil2 str1" points="14258,11927 14337,11941 14336,11963 14262,11949 14257,11933 14258,11932 14261,11932 "/>
  <polyline class="fil2 str1" points="14175,11914 14254,11928 14252,11950 14179,11936 14174,11921 14175,11919 14178,11919 "/>
  <polyline class="fil2 str1" points="14100,11907 14179,11921 14178,11942 14104,11928 14099,11913 14100,11912 14103,11911 "/>
  <polyline class="fil2 str1" points="14099,11906 14178,11920 14177,11941 14103,11928 14098,11912 14099,11911 14103,11910 "/>
  <polyline class="fil2 str1" points="14176,11925 14255,11939 14254,11960 14180,11946 14175,11931 14176,11930 14180,11929 "/>
  <polyline class="fil2 str1" points="14008,11896 14087,11910 14086,11931 14012,11918 14007,11902 14008,11901 14011,11901 "/>
  <polyline class="fil2 str1" points="14008,11896 14087,11910 14086,11931 14012,11918 14007,11902 14008,11901 14011,11901 "/>
  <line class="fil2 str0" x1="14149" y1="11934" x2="14151" y2= "11906" />
  <line class="fil2 str0" x1="14149" y1="11934" x2="14151" y2= "11906" />
  <path class="fil2 str0" d="M27583 13580c-60,-477 13,-728 -43,-728 -1538,57 -2833,28 -3891,-33 -2193,-185 -3480,-412 -3917,-433 -1083,-172 -2569,-385 -4478,-595 2584,499 4056,762 4417,787 2561,458 4183,715 4868,770 1657,219 2671,297 3042,233z"/>
  <path class="fil2 str0" d="M26999 11945c-12,-1535 -18,-2303 -18,-2303"/>
  <path class="fil2 str0" d="M25003 10229c0,-119 0,-179 0,-179 1223,-191 1834,-286 1834,-286 -6,197 -9,295 -9,295 -1217,113 -1825,170 -1825,170z"/>
  <path class="fil2 str0" d="M25021 10416c1223,-143 1834,-215 1834,-215 0,209 0,313 0,313 -1217,72 -1825,107 -1825,107"/>
  <path class="fil2 str0" d="M25048 11007c-12,-137 -18,-206 -18,-206 1229,-60 1843,-89 1843,-89 6,203 9,304 9,304 -1223,-6 -1834,-9 -1834,-9z"/>
  <path class="fil2 str0" d="M25021 10416c6,137 9,206 9,206"/>
  <path class="fil2 str0" d="M25093 11437c-6,-155 -9,-233 -9,-233 1199,-18 1799,-27 1799,-27 -6,221 -9,331 -9,331 -1187,-48 -1781,-72 -1781,-72z"/>
  <path class="fil2 str0" d="M19509 13951c51,60 76,89 76,89 68,-119 129,-173 183,-161 256,30 448,-3 577,-98 -259,24 -486,3 -680,-63 -78,-10 -126,-27 -143,-49 3,189 -1,283 -13,282z"/>
  <path class="fil2 str0" d="M19523 13669c-11,-33 -3,-59 22,-78 83,-161 202,-168 356,-22 407,37 654,46 740,25 -134,116 -224,173 -271,172 -529,-10 -812,-42 -848,-96z"/>
  <path class="fil2 str0" d="M7542 11945c202,98 396,117 581,57 198,-31 184,-87 -41,-168"/>
  <path class="fil2 str0" d="M8208 11784c180,144 325,149 434,13 46,-67 -20,-111 -198,-132"/>
  <path class="fil2 str0" d="M8575 11578c624,57 1113,106 1467,148"/>
  <path class="fil2 str0" d="M10244 11739c1086,82 1793,144 2121,188"/>
  <path class="fil2 str0" d="M12463 11935c854,83 1623,203 2309,358"/>
  <path class="fil2 str0" d="M14827 12352c2,-61 44,-86 128,-76 102,-2 174,-32 215,-92 -219,-35 -332,-26 -338,27 -34,45 -44,94 -31,145"/>
  <path class="fil2 str0" d="M19524 13812c-108,74 -273,66 -495,-22"/>
  <path class="fil2 str0" d="M18858 13727c-1530,-599 -2500,-945 -2908,-1038"/>
  <path class="fil2 str0" d="M14946 12334c373,111 697,226 971,345"/>
  <path class="fil2 str0" d="M23509 15179c338,114 547,263 626,447 -236,-153 -1385,-586 -3445,-1297 -390,-62 -697,-212 -922,-450"/>
  <path class="fil2 str0" d="M25818 15063c-646,-172 -1100,-238 -1360,-197 604,-111 1359,-78 2264,98 -220,52 -372,109 -456,170 -171,14 -320,-10 -447,-72z"/>
  <path class="fil2 str0" d="M25042 14892c345,258 809,407 1393,448 190,206 396,268 617,188 266,25 411,81 436,170 0,-304 0,-456 0,-456 -428,-194 -683,-286 -767,-277"/>
  <path class="fil2 str0" d="M24341 14964c2098,650 3147,975 3147,975"/>
  <path class="fil2 str0" d="M22252 13487c1653,698 2749,1104 3289,1218 1174,165 1792,97 1852,-206"/>
  <path class="fil2 str0" d="M17827 13255c554,94 1067,1 1539,-277 667,426 1192,617 1575,573 -337,277 -628,388 -873,332"/>
  <path class="fil2 str0" d="M26895 9640c165,-283 247,-424 247,-424"/>
  <path class="fil2 str0" d="M9121 11868c434,60 792,95 1073,103 954,100 1506,142 1655,125 176,-21 0,0 -528,63 187,183 -207,239 -1181,170 -157,65 -366,104 -626,116 1381,40 1551,120 510,242 -847,-3 -1270,-4 -1270,-4"/>
  <path class="fil2 str0" d="M10436 12741c901,42 1351,63 1351,63 597,775 895,1163 895,1163 292,-6 438,-9 438,-9 -113,89 -170,134 -170,134 406,7 626,10 662,9 -478,105 -666,162 -564,170 561,38 844,56 850,54 -655,58 -936,84 -841,81 972,1414 1459,2121 1459,2121 1602,342 2461,485 2577,430 -878,51 -1459,95 -1745,134 3555,447 5333,671 5333,671 -3794,42 -5691,63 -5691,63 5465,358 8057,624 7776,796 -3090,131 -4635,197 -4635,197 3889,463 5864,731 5924,805 -2321,402 -3806,593 -4456,573"/>
  <path class="fil2 str0" d="M19778 20195c2744,441 4116,662 4116,662"/>
  <path class="fil2 str0" d="M13770 11282c-8,-212 28,-446 107,-703"/>
  <path class="fil2 str0" d="M13769 11152c-13,-327 -104,-465 -272,-415"/>
  <path class="fil2 str0" d="M13692 10805c20,-130 47,-248 82,-353"/>
  <path class="fil2 str0" d="M14011 11188c14,-188 61,-347 141,-478"/>
  <path class="fil2 str0" d="M18674 14065c-1208,-55 -1771,12 -1688,202 1298,579 2065,596 2302,52"/>
  <path class="fil2 str0" d="M17881 14046c-707,-29 -1148,11 -1325,122 366,486 1135,727 2309,725 911,70 1097,-104 557,-521"/>
  <path class="fil3 str0" d="M15666 14539c-3,77 43,107 139,89 -36,-67 -82,-97 -139,-89z"/>
  <path class="fil3 str0" d="M15520 14043c-1,29 17,41 53,34 -14,-26 -31,-37 -53,-34z"/>
  <path class="fil3 str0" d="M15551 13939c-2,58 32,80 104,67 -27,-50 -61,-73 -104,-67z"/>
  <path class="fil3 str0" d="M15766 14187c-2,58 32,80 104,67 -27,-50 -61,-73 -104,-67z"/>
  <path class="fil3 str0" d="M15431 14129c-2,58 32,80 104,67 -27,-50 -61,-73 -104,-67z"/>
  <path class="fil3 str0" d="M15270 14249c-2,58 32,80 104,67 -27,-50 -61,-73 -104,-67z"/>
  <path class="fil3 str0" d="M15690 14249c-2,58 32,80 104,67 -27,-50 -61,-73 -104,-67z"/>
  <path class="fil3 str0" d="M15762 14334c-2,58 32,80 104,67 -27,-50 -61,-73 -104,-67z"/>
  <path class="fil3 str0" d="M15331 14464c-3,76 43,106 137,89 -35,-66 -81,-96 -137,-89z"/>
  <path class="fil3 str0" d="M14634 13990c-2,58 32,80 104,67 -27,-50 -61,-73 -104,-67z"/>
  <path class="fil3 str0" d="M14654 13913c-2,58 32,80 104,67 -27,-50 -61,-73 -104,-67z"/>
  <path class="fil3 str0" d="M14487 13932c-2,58 32,80 104,67 -27,-50 -61,-73 -104,-67z"/>
  <path class="fil3 str0" d="M14245 13909c-2,58 32,80 104,67 -27,-50 -61,-73 -104,-67z"/>
  <path class="fil3 str0" d="M15828 13944c-1,29 17,41 53,34 -14,-26 -31,-37 -53,-34z"/>
  <path class="fil3 str0" d="M15903 13927c-1,29 17,41 53,34 -14,-26 -31,-37 -53,-34z"/>
  <path class="fil3 str0" d="M16029 13958c-1,29 17,41 53,34 -14,-26 -31,-37 -53,-34z"/>
  <path class="fil3 str0" d="M16103 14122c-1,29 17,41 53,34 -14,-26 -31,-37 -53,-34z"/>
  <path class="fil3 str0" d="M16007 14228c-1,29 17,41 53,34 -14,-26 -31,-37 -53,-34z"/>
  <path class="fil3 str0" d="M16374 14161c-1,29 17,41 53,34 -14,-26 -31,-37 -53,-34z"/>
  <path class="fil3 str0" d="M17119 14180c-1,29 17,41 53,34 -14,-26 -31,-37 -53,-34z"/>
  <path class="fil3 str0" d="M17069 14238c-1,29 17,41 53,34 -14,-26 -31,-37 -53,-34z"/>
  <path class="fil3 str0" d="M16825 15246c-3,77 43,107 139,89 -36,-67 -82,-97 -139,-89z"/>
  <path class="fil3 str0" d="M14959 14467c-2,61 35,85 111,72 -28,-54 -65,-77 -111,-72z"/>
  <path class="fil3 str0" d="M14635 14613c-2,61 35,85 111,72 -28,-54 -65,-77 -111,-72z"/>
  <path class="fil3 str0" d="M14329 14691c-2,61 35,85 111,72 -28,-54 -65,-77 -111,-72z"/>
  <path class="fil3 str0" d="M14208 14719c-3,77 43,107 139,90 -36,-67 -82,-97 -139,-90z"/>
  <path class="fil3 str0" d="M17015 13901c-1,29 17,41 53,34 -14,-26 -31,-37 -53,-34z"/>
  <path class="fil2 str0" d="M8231 11165c-193,-158 -222,-320 -88,-486 35,-278 163,-290 385,-36 -72,-389 14,-584 260,-587 268,15 357,205 268,569 217,-39 304,3 260,125 -164,-497 -34,-729 391,-696 268,118 344,293 226,526 429,-74 503,63 221,410"/>
  <path class="fil2 str0" d="M10313 10634c152,-271 297,-295 434,-71"/>
  <path class="fil2 str0" d="M10747 10563c97,-438 282,-521 555,-251 209,352 105,567 -313,644"/>
  <path class="fil2 str0" d="M11367 10441c96,-339 274,-364 535,-74"/>
  <path class="fil2 str0" d="M11460 10937c-25,-375 104,-458 387,-248"/>
  <path class="fil2 str0" d="M11893 10823c13,-526 193,-670 541,-429"/>
  <path class="fil2 str0" d="M12215 10697c397,-64 535,46 412,331"/>
  <path class="fil2 str0" d="M12503 10687c41,-605 192,-595 455,28"/>
  <path class="fil2 str0" d="M12832 10858c420,-328 608,-301 564,81"/>
  <path class="fil2 str0" d="M12832 11136c170,-300 427,-288 770,36"/>
  <path class="fil2 str0" d="M10450 10391c164,-426 379,-545 647,-357"/>
  <path class="fil2 str0" d="M10458 10270c-357,-461 -710,-551 -1058,-268"/>
  <path class="fil2 str0" d="M9172 10082c-483,-345 -877,-399 -1181,-163"/>
  <path class="fil2 str0" d="M11162 9524c-4261,-269 -6690,-507 -7286,-714"/>
  <path class="fil2 str0" d="M11897 9599c1196,114 1876,183 2039,205"/>
  <path class="fil2 str0" d="M-60 4872c13848,2572 21253,3646 22216,3221"/>
  <path class="fil2 str0" d="M-60 3691c15912,2234 24862,3224 26851,2971 -15012,-1648 -23389,-2973 -25130,-3975 14704,2178 22781,3120 24231,2828 -12132,-1827 -18921,-3282 -20366,-4367 12745,2120 19843,3110 21296,2971 -7578,-1417 -11742,-2252 -12491,-2505"/>
  <path class="fil2 str0" d="M25813 9534c-700,-737 -677,-1117 70,-1140"/>
  <path class="fil2 str0" d="M26044 8742c-47,-542 -223,-595 -528,-161"/>
  <path class="fil2 str0" d="M26017 8975c70,-734 288,-922 653,-564"/>
  <path class="fil2 str0" d="M26560 8317c525,-25 579,219 164,730"/>
  <path class="fil2 str0" d="M26851 8877c339,196 292,336 -141,422"/>
  <path class="fil2 str0" d="M25596 9548c-701,-463 -1228,-460 -1584,9"/>
  <path class="fil2 str0" d="M21507 9762c107,-546 265,-603 474,-170"/>
  <path class="fil2 str0" d="M21867 9397c663,-382 1080,-367 1251,43"/>
  <path class="fil2 str0" d="M22626 9557c470,-210 732,-234 787,-72"/>
  <polyline class="fil2 str0" points="23330,9608 23333,9525 23189,9519 23192,9630 23195,9652 "/>
  <polyline class="fil2 str0" points="24174,9671 24178,9597 24321,9612 24306,9720 "/>
  <path class="fil2 str0" d="M9566 12131c649,89 1142,113 1476,72"/>
  <path class="fil2 str0" d="M9913 12194c295,13 378,54 248,125"/>
  <path class="fil2 str0" d="M9588 12174c47,30 4,71 -130,125 -82,62 -71,102 34,121"/>
  <path class="fil2 str0" d="M9112 12563c542,72 979,70 1311,-4"/>
  <path class="fil2 str0" d="M6808 13892c1525,79 2479,31 2863,-143 879,-99 1392,-51 1539,143 -47,78 -152,91 -315,40 385,211 731,373 1038,485 -611,-61 -946,-37 -1007,72 11,194 196,310 555,349 -146,9 -205,36 -179,81 285,67 455,148 510,242 -295,77 -522,74 -680,-9 104,266 214,380 331,340 -105,66 -177,87 -215,63 289,100 441,187 456,259 -161,-34 -239,-34 -233,0 446,175 825,267 1136,277 -647,67 -999,129 -1056,188 306,281 802,469 1485,564 -177,52 -152,100 76,143 262,61 307,112 134,152 -612,22 -1031,105 -1257,251 349,-25 605,-8 770,54 -179,-107 0,0 537,322 118,236 655,475 1611,716 145,174 532,233 1163,179 739,-47 1658,240 2756,859 326,540 -223,701 -1646,483"/>
  <path class="fil2 str0" d="M16751 18838c-1363,802 -1566,1250 -608,1342"/>
  <path class="fil2 str0" d="M16411 18909c-1018,436 -1525,817 -1521,1145"/>
  <path class="fil2 str0" d="M16000 18909c-1713,34 -2363,404 -1951,1110"/>
  <path class="fil2 str0" d="M-60 16315c1039,93 2026,3 2960,-268 1477,-211 2264,-420 2362,-626 1352,-62 2097,-247 2237,-555 1514,-157 2332,-330 2452,-519 -1120,-392 -2167,-543 -3143,-454"/>
  <path class="fil2 str0" d="M9754 15169c769,167 948,274 537,322 -1602,12 -2013,244 -1235,698 -145,264 46,365 573,304 873,26 1052,103 537,233 -759,114 -700,246 179,394 1050,321 1325,593 823,814 -835,265 -728,546 322,841 174,249 36,410 -412,483 36,287 444,419 1226,394 -1248,-12 -1821,137 -1718,447"/>
  <path class="fil2 str0" d="M-60 20207c2100,-176 3340,-295 3720,-358 528,-182 767,-301 716,-358 271,476 509,619 716,430 271,256 515,321 734,197 296,-144 654,-144 1074,0 836,-96 1534,-96 2094,0 -310,-54 0,0 931,161 667,-328 1324,-334 1969,-18 1306,-26 2100,-91 2380,-197 420,-69 844,-9 1271,179 819,-220 1364,-300 1637,-242"/>
  <path class="fil2 str0" d="M17083 19987c1230,87 1862,202 1897,345 129,-534 550,-588 1263,-162"/>
  <path class="fil3 str0" d="M18053 14087c-1,29 17,41 53,34 -14,-26 -31,-37 -53,-34z"/>
  <path class="fil3 str0" d="M18473 14464c1,29 -17,41 -53,34 14,-26 31,-37 53,-34z"/>
  <path class="fil3 str0" d="M17908 14090c1,29 -17,41 -53,34 14,-26 31,-37 53,-34z"/>
  <path class="fil3 str0" d="M18393 14252c1,29 -17,41 -53,34 14,-26 31,-37 53,-34z"/>
  <path class="fil3 str0" d="M18774 14105c2,54 -31,75 -98,63 25,-47 58,-68 98,-63z"/>
  <path class="fil3 str0" d="M19075 14344c2,54 -31,75 -98,63 25,-47 58,-68 98,-63z"/>
  <path class="fil3 str0" d="M19259 14322c2,54 -31,75 -98,63 25,-47 58,-68 98,-63z"/>
  <path class="fil3 str0" d="M19312 14411c2,54 -31,75 -98,63 25,-47 58,-68 98,-63z"/>
  <path class="fil3 str0" d="M19567 14868c2,54 -31,75 -98,63 25,-47 58,-68 98,-63z"/>
  <path class="fil3 str0" d="M19831 14971c2,54 -31,75 -98,63 25,-47 58,-68 98,-63z"/>
  <path class="fil3 str0" d="M19813 14658c2,54 -31,75 -98,63 25,-47 58,-68 98,-63z"/>
  <path class="fil3 str0" d="M19912 14622c2,54 -31,75 -98,63 25,-47 58,-68 98,-63z"/>
  <path class="fil3 str0" d="M20887 15293c2,54 -31,75 -98,63 25,-47 58,-68 98,-63z"/>
  <path class="fil3 str0" d="M21057 15561c2,54 -31,75 -98,63 25,-47 58,-68 98,-63z"/>
  <path class="fil3 str0" d="M21285 15713c2,54 -31,75 -98,63 25,-47 58,-68 98,-63z"/>
  <path class="fil3 str0" d="M21370 15360c2,54 -31,75 -98,63 25,-47 58,-68 98,-63z"/>
  <path class="fil3 str0" d="M21594 15566c2,54 -31,75 -98,63 25,-47 58,-68 98,-63z"/>
  <path class="fil3 str0" d="M21612 16000c2,54 -31,75 -98,63 25,-47 58,-68 98,-63z"/>
  <path class="fil3 str0" d="M21612 16000c2,54 -31,75 -98,63 25,-47 58,-68 98,-63z"/>
  <path class="fil3 str0" d="M22086 15866c2,54 -31,75 -98,63 25,-47 58,-68 98,-63z"/>
  <path class="fil3 str0" d="M20655 16876c-36,41 -24,78 37,111 10,-53 -2,-90 -37,-111z"/>
  <path class="fil3 str0" d="M20413 18118c-36,41 -24,78 37,111 10,-53 -2,-90 -37,-111z"/>
  <path class="fil3 str0" d="M20825 18118c-36,41 -24,78 37,111 10,-53 -2,-90 -37,-111z"/>
  <path class="fil3 str0" d="M23965 17196c-36,41 -24,78 37,111 10,-53 -2,-90 -37,-111z"/>
  <path class="fil3 str0" d="M23965 17196c-36,41 -24,78 37,111 10,-53 -2,-90 -37,-111z"/>
  <path class="fil2 str0" d="M20624 20331c598,-249 1322,-241 2171,25 667,-245 1088,-415 1262,-510 321,186 810,264 1467,233 647,-155 1238,-111 1772,134 158,-68 222,-68 191,0"/>
  <path class="fil2 str0" d="M25570 19990c-102,-179 -311,-275 -626,-286 -94,4 -136,-73 -125,-233 -191,-32 -352,-89 -483,-170 -154,-171 -193,-312 -116,-421 18,-156 -129,-266 -438,-331 -142,-188 -71,-239 215,-152 213,99 442,108 689,27 385,60 623,156 716,286 272,220 457,256 555,107 164,70 319,115 465,134 197,77 364,83 501,18 299,32 488,80 567,143"/>
  <path class="fil3 str0" d="M25570 18012c-36,41 -24,78 37,111 10,-53 -2,-90 -37,-111z"/>
  <path class="fil3 str0" d="M25901 18227c-36,41 -24,78 37,111 10,-53 -2,-90 -37,-111z"/>
  <path class="fil3 str0" d="M26080 18039c-36,41 -24,78 37,111 10,-53 -2,-90 -37,-111z"/>
  <path class="fil3 str0" d="M26178 18648c-36,41 -24,78 37,111 10,-53 -2,-90 -37,-111z"/>
  <path class="fil3 str0" d="M26142 19489c-36,41 -24,78 37,111 10,-53 -2,-90 -37,-111z"/>
  <path class="fil3 str0" d="M25811 19498c-36,41 -24,78 37,111 10,-53 -2,-90 -37,-111z"/>
  <path class="fil3 str0" d="M25811 19498c-36,41 -24,78 37,111 10,-53 -2,-90 -37,-111z"/>
  <path class="fil3 str0" d="M10208 14592c-3,77 43,107 139,90 -36,-67 -82,-97 -139,-90z"/>
  <path class="fil3 str0" d="M9484 14628c-3,77 43,107 139,90 -36,-67 -82,-97 -139,-90z"/>
  <path class="fil3 str0" d="M9931 14834c-3,77 43,107 139,90 -36,-67 -82,-97 -139,-90z"/>
  <path class="fil3 str0" d="M9555 14825c-3,77 43,107 139,90 -36,-67 -82,-97 -139,-90z"/>
  <path class="fil3 str0" d="M9314 14700c-3,77 43,107 139,90 -36,-67 -82,-97 -139,-90z"/>
  <path class="fil3 str0" d="M9367 14950c-3,77 43,107 139,90 -36,-67 -82,-97 -139,-90z"/>
  <path class="fil3 str0" d="M9457 15201c-3,77 43,107 139,90 -36,-67 -82,-97 -139,-90z"/>
  <path class="fil3 str0" d="M9537 15398c-3,77 43,107 139,90 -36,-67 -82,-97 -139,-90z"/>
  <path class="fil3 str0" d="M9474 15398c-3,77 43,107 139,90 -36,-67 -82,-97 -139,-90z"/>
  <path class="fil3 str0" d="M9108 15237c-3,77 43,107 139,90 -36,-67 -82,-97 -139,-90z"/>
  <path class="fil3 str0" d="M9079 15275c-3,77 43,107 139,90 -36,-67 -82,-97 -139,-90z"/>
  <path class="fil3 str0" d="M8696 15093c-3,77 43,107 139,90 -36,-67 -82,-97 -139,-90z"/>
  <path class="fil3 str0" d="M8481 15040c-3,77 43,107 139,90 -36,-67 -82,-97 -139,-90z"/>
  <path class="fil3 str0" d="M8249 15174c-3,77 43,107 139,90 -36,-67 -82,-97 -139,-90z"/>
  <path class="fil3 str0" d="M8079 15416c-3,77 43,107 139,90 -36,-67 -82,-97 -139,-90z"/>
  <path class="fil3 str0" d="M8159 15845c-3,77 43,107 139,90 -36,-67 -82,-97 -139,-90z"/>
  <path class="fil3 str0" d="M8669 16239c-3,77 43,107 139,90 -36,-67 -82,-97 -139,-90z"/>
  <path class="fil3 str0" d="M8830 16230c-3,77 43,107 139,90 -36,-67 -82,-97 -139,-90z"/>
  <path class="fil3 str0" d="M9958 16597c-3,77 43,107 139,90 -36,-67 -82,-97 -139,-90z"/>
  <path class="fil3 str0" d="M10423 16588c-3,77 43,107 139,90 -36,-67 -82,-97 -139,-90z"/>
  <path class="fil3 str0" d="M7569 16463c-3,77 43,107 139,90 -36,-67 -82,-97 -139,-90z"/>
  <path class="fil3 str0" d="M7273 15738c-3,77 43,107 139,90 -36,-67 -82,-97 -139,-90z"/>
  <path class="fil3 str0" d="M7041 15738c-3,77 43,107 139,90 -36,-67 -82,-97 -139,-90z"/>
  <path class="fil3 str0" d="M6074 15550c-3,77 43,107 139,90 -36,-67 -82,-97 -139,-90z"/>
  <path class="fil3 str0" d="M5734 15577c-3,77 43,107 139,90 -36,-67 -82,-97 -139,-90z"/>
  <path class="fil3 str0" d="M5869 16633c-3,77 43,107 139,90 -36,-67 -82,-97 -139,-90z"/>
  <path class="fil3 str0" d="M6656 16704c-3,77 43,107 139,90 -36,-67 -82,-97 -139,-90z"/>
  <path class="fil3 str0" d="M6513 16471c-3,77 43,107 139,90 -36,-67 -82,-97 -139,-90z"/>
  <path class="fil3 str0" d="M5296 16803c-3,77 43,107 139,90 -36,-67 -82,-97 -139,-90z"/>
  <path class="fil3 str0" d="M4473 16883c-3,77 43,107 139,90 -36,-67 -82,-97 -139,-90z"/>
  <path class="fil3 str0" d="M4542 16926c-3,77 43,107 139,90 -36,-67 -82,-97 -139,-90z"/>
  <path class="fil2 str0" d="M14254 11572c-558,95 -1050,142 -1476,143 -559,-35 -997,-87 -1314,-156 -774,5 -1296,-40 -1567,-134"/>
 </g>
</svg>
