<?xml version="1.0" encoding="UTF-8"?>
<!DOCTYPE svg PUBLIC "-//W3C//DTD SVG 1.1//EN" "http://www.w3.org/Graphics/SVG/1.1/DTD/svg11.dtd">
<!-- Creator: CorelDRAW X6 -->
<svg xmlns="http://www.w3.org/2000/svg" xml:space="preserve" width="124.9mm" height="280.5mm" version="1.1" style="shape-rendering:geometricPrecision; text-rendering:geometricPrecision; image-rendering:optimizeQuality; fill-rule:evenodd; clip-rule:evenodd"
viewBox="0 0 12490 28050"
 xmlns:xlink="http://www.w3.org/1999/xlink">
 <defs>
  <style type="text/css">
   <![CDATA[
    .str4 {stroke:#2B2A29;stroke-width:7}
    .str3 {stroke:#2B2A29;stroke-width:7.62}
    .str1 {stroke:#2B2A29;stroke-width:10}
    .str0 {stroke:#2B2A29;stroke-width:20}
    .str2 {stroke:#2B2A29;stroke-width:20;stroke-linejoin:round}
    .str5 {stroke:#2B2A29;stroke-width:20;stroke-linejoin:bevel}
    .str6 {stroke:#2B2A29;stroke-width:40}
    .fil2 {fill:none}
    .fil4 {fill:#2B2A29}
    .fil3 {fill:#1F1B1F}
    .fil1 {fill:#201C1E}
    .fil0 {fill:url(#id0)}
   ]]>
  </style>
  <linearGradient id="id0" gradientUnits="userSpaceOnUse" x1="6334.95" y1="-859.24" x2="6179.65" y2="28901">
   <stop offset="0" style="stop-color:#3E5D7C"/>
   <stop offset="1" style="stop-color:#9FB1BB"/>
  </linearGradient>
 </defs>
 <g id="Слой_x0020_1">
  <metadata id="CorelCorpID_0Corel-Layer"/>
  <rect class="fil0" x="8" y="-2" width="12499" height="28046"/>
  <g id="_714154336">
   <path class="fil1" d="M5007 21176c-70,-27 -190,-58 -361,-94 558,42 898,68 1019,79 782,66 1203,102 1264,109 844,83 1354,142 1531,177 511,87 894,154 1147,201 851,255 1538,475 2059,660 323,130 600,240 830,332l0 262c-790,-328 -1318,-537 -1582,-628 -680,-276 -1130,-447 -1350,-513 -562,-129 -1089,-232 -1580,-308 -1896,-215 -2888,-307 -2977,-278z"/>
   <path class="fil2 str0" d="M8 21850c584,-58 1068,-112 1451,-163 381,-53 619,-88 712,-106 390,-62 663,-114 820,-156 506,-72 788,-119 845,-142 279,-59 452,-98 519,-118 82,-23 124,-34 124,-34 47,-16 66,-25 57,-26"/>
   <path class="fil2 str1" d="M1438 21732c-532,72 -1009,133 -1430,184l0 1584c295,-174 1856,-708 4685,-1604 299,-30 524,-205 675,-525 -213,-125 -444,-209 -692,-250 -193,58 -378,109 -555,152 -555,133 -1449,286 -2683,460z"/>
   <path class="fil2 str0" d="M8 21672c566,-47 1026,-90 1379,-130"/>
   <path class="fil2 str2" d="M1357 21545c1582,-199 2414,-310 2480,-353 424,-75 643,-144 699,-160 -56,-22 -216,-32 -469,-40"/>
   <path class="fil3" d="M8 23605c583,-228 1136,-421 1658,-578 616,-203 1174,-391 1674,-564 538,-148 1072,-361 1582,-657 176,-107 279,-195 399,-305 -2,-45 12,-119 17,-170 -134,130 -266,226 -384,303 -616,306 -1132,511 -1546,615 -391,110 -960,282 -1704,517 -674,204 -1239,380 -1695,527l0 311z"/>
   <polygon class="fil2 str0" points="3837,20851 3827,20851 3827,21293 3837,21293 "/>
   <polygon class="fil2 str0" points="3442,20819 3458,20819 3458,21367 3442,21367 "/>
   <polygon class="fil2 str0" points="2975,20799 2992,20799 2992,21451 2975,21451 "/>
   <polygon class="fil4 str0" points="2379,20846 2358,20846 2358,21554 2379,21554 "/>
   <polygon class="fil2 str0" points="4206,20874 4197,20874 4197,21208 4206,21208 "/>
   <polygon class="fil2 str0" points="4350,20882 4357,20882 4357,21165 4350,21165 "/>
   <polygon class="fil2 str0" points="4474,20905 4480,20905 4480,21131 4474,21131 "/>
   <polygon class="fil2 str1" points="4092,20899 4099,20899 4099,21057 4092,21057 "/>
   <polygon class="fil4 str0" points="1384,20869 1404,20869 1376,21696 1356,21695 "/>
   <polygon class="fil4 str0" points="220,21628 234,21628 234,21842 220,21842 "/>
   <polygon class="fil4 str0" points="541,21603 555,21603 555,21808 541,21808 "/>
   <polygon class="fil4 str0" points="864,21571 878,21571 878,21770 864,21770 "/>
   <polygon class="fil4 str0" points="1159,21540 1172,21540 1172,21736 1159,21736 "/>
   <polygon class="fil4 str0" points="1441,21508 1455,21508 1455,21697 1441,21697 "/>
   <polygon class="fil4 str0" points="1702,21478 1716,21478 1716,21661 1702,21661 "/>
   <polygon class="fil4 str0" points="1929,21452 1941,21452 1941,21630 1929,21630 "/>
   <polygon class="fil4 str0" points="2138,21424 2152,21424 2152,21597 2138,21597 "/>
   <polygon class="fil4 str0" points="2334,21394 2348,21394 2348,21560 2334,21560 "/>
   <polygon class="fil4 str0" points="2555,21368 2565,21368 2565,21529 2555,21529 "/>
   <g>
    <polyline class="fil2 str1" points="232,21677 380,21662 378,21787 251,21801 253,21688 365,21677 364,21772 264,21784 266,21701 354,21691 353,21763 276,21771 276,21716 344,21707 341,21752 289,21757 289,21732 332,21727 330,21744 301,21745 "/>
    <polyline class="fil2 str1" points="382,21662 530,21648 528,21766 401,21780 402,21672 515,21662 514,21753 414,21764 416,21685 504,21675 502,21744 426,21752 426,21700 493,21690 491,21733 438,21738 439,21714 482,21709 480,21725 451,21727 "/>
    <polygon class="fil4" points="379,21692 402,21691 401,21755 379,21758 "/>
   </g>
   <g>
    <path class="fil2 str1" d="M8 21692l38 -3 -4 139 -34 3m0 -125l21 -2 -4 107 -18 2m0 -92l8 -1 -3 81 -5 0"/>
    <polyline class="fil2 str1" points="49,21689 217,21676 213,21809 68,21822 72,21701 200,21691 197,21793 83,21804 87,21716 187,21706 184,21783 97,21790 98,21732 175,21723 171,21771 112,21775 112,21749 162,21744 159,21762 126,21763 "/>
    <polygon class="fil4" points="45,21722 71,21722 69,21794 43,21797 "/>
   </g>
   <g>
    <polyline class="fil2 str1" points="556,21644 703,21629 702,21754 575,21768 576,21655 689,21644 687,21739 588,21751 589,21668 678,21658 676,21730 600,21738 600,21683 667,21674 664,21719 612,21724 612,21699 656,21694 653,21710 625,21712 "/>
    <polyline class="fil2 str1" points="705,21629 853,21615 852,21733 724,21747 726,21639 839,21629 837,21720 738,21731 739,21652 827,21642 826,21711 749,21719 750,21667 817,21657 814,21700 762,21705 762,21681 806,21676 803,21692 775,21694 "/>
    <polygon class="fil4" points="703,21659 726,21658 725,21722 702,21725 "/>
   </g>
   <g>
    <polyline class="fil2 str1" points="865,21611 1012,21597 1011,21721 884,21736 885,21622 998,21611 996,21707 897,21719 898,21636 987,21625 985,21697 909,21705 909,21651 976,21641 973,21687 921,21691 921,21666 965,21661 962,21678 934,21680 "/>
    <polyline class="fil2 str1" points="1015,21596 1162,21583 1161,21701 1034,21715 1035,21607 1148,21596 1146,21687 1047,21699 1048,21620 1137,21610 1135,21678 1059,21686 1059,21634 1126,21625 1123,21668 1071,21673 1071,21649 1115,21644 1112,21660 1084,21661 "/>
    <polygon class="fil4" points="1012,21626 1035,21626 1034,21690 1011,21693 "/>
   </g>
   <g>
    <polyline class="fil2 str1" points="1165,21584 1298,21569 1298,21684 1184,21698 1184,21594 1285,21582 1285,21670 1196,21683 1196,21606 1275,21595 1275,21662 1206,21670 1205,21620 1266,21610 1264,21652 1217,21657 1217,21634 1256,21629 1254,21644 1228,21646 "/>
    <polyline class="fil2 str1" points="1300,21568 1433,21554 1433,21663 1318,21677 1319,21578 1420,21566 1419,21651 1330,21663 1331,21589 1410,21579 1409,21643 1341,21651 1340,21603 1401,21593 1398,21633 1352,21638 1351,21616 1391,21611 1388,21626 1363,21627 "/>
    <polygon class="fil4" points="1298,21596 1318,21595 1318,21654 1298,21657 "/>
   </g>
   <g>
    <polyline class="fil2 str1" points="1441,21554 1568,21536 1570,21651 1461,21668 1459,21563 1556,21550 1557,21638 1472,21652 1471,21575 1547,21563 1547,21630 1482,21639 1480,21589 1538,21578 1537,21620 1492,21626 1492,21603 1529,21597 1527,21613 1503,21615 "/>
    <polyline class="fil2 str1" points="1570,21535 1697,21519 1698,21632 1589,21644 1588,21545 1684,21532 1685,21620 1600,21629 1600,21556 1675,21544 1675,21612 1610,21617 1609,21569 1667,21559 1665,21602 1621,21604 1620,21582 1658,21577 1656,21592 1631,21594 "/>
    <polygon class="fil4" points="1569,21563 1588,21562 1589,21622 1570,21625 "/>
   </g>
   <g>
    <polyline class="fil2 str3" points="1717,21520 1819,21505 1818,21616 1730,21630 1732,21529 1809,21518 1808,21603 1739,21615 1741,21541 1801,21531 1800,21595 1748,21603 1748,21554 1794,21545 1792,21586 1756,21590 1756,21568 1786,21563 1784,21578 1765,21580 "/>
    <polyline class="fil2 str3" points="1821,21505 1922,21491 1920,21600 1833,21610 1835,21514 1912,21503 1910,21588 1842,21596 1844,21525 1904,21516 1903,21581 1851,21584 1851,21538 1897,21529 1895,21571 1859,21572 1859,21551 1889,21546 1887,21561 1868,21562 "/>
    <polygon class="fil4 str3" points="1819,21532 1834,21531 1834,21588 1818,21591 "/>
   </g>
   <g>
    <polyline class="fil2 str3" points="1934,21491 2036,21477 2034,21587 1947,21601 1948,21500 2026,21489 2024,21575 1956,21586 1957,21512 2018,21502 2017,21567 1964,21574 1964,21526 2011,21516 2009,21557 1973,21562 1973,21539 2003,21534 2001,21549 1981,21551 "/>
    <polyline class="fil2 str3" points="2037,21476 2139,21463 2137,21572 2050,21581 2051,21485 2129,21475 2127,21560 2059,21567 2060,21497 2121,21487 2119,21552 2067,21556 2067,21509 2114,21501 2111,21543 2076,21544 2076,21522 2106,21518 2104,21532 2084,21534 "/>
    <polygon class="fil4 str3" points="2035,21503 2051,21502 2050,21559 2035,21562 "/>
   </g>
   <g>
    <polyline class="fil2 str3" points="2139,21461 2240,21446 2239,21557 2151,21571 2153,21470 2230,21459 2229,21544 2161,21556 2162,21482 2222,21472 2221,21536 2169,21544 2169,21495 2215,21486 2213,21527 2177,21531 2177,21509 2208,21504 2206,21519 2186,21521 "/>
    <polyline class="fil2 str3" points="2242,21446 2343,21432 2341,21541 2255,21551 2256,21455 2333,21444 2331,21529 2264,21537 2265,21466 2325,21457 2324,21522 2272,21525 2272,21479 2318,21470 2316,21512 2280,21513 2281,21492 2311,21487 2309,21502 2289,21503 "/>
    <polygon class="fil4 str3" points="2240,21473 2256,21472 2255,21529 2239,21532 "/>
   </g>
   <g>
    <polyline class="fil2 str3" points="2356,21430 2458,21416 2457,21526 2369,21541 2371,21440 2448,21429 2447,21514 2378,21525 2380,21451 2440,21441 2439,21506 2387,21513 2387,21465 2433,21456 2431,21496 2395,21501 2395,21478 2425,21474 2423,21489 2404,21490 "/>
    <polyline class="fil2 str3" points="2460,21415 2561,21402 2559,21511 2472,21521 2474,21424 2551,21414 2549,21499 2481,21506 2483,21436 2543,21426 2542,21491 2490,21495 2490,21448 2536,21440 2534,21482 2498,21483 2498,21461 2528,21457 2527,21471 2507,21473 "/>
    <polygon class="fil4 str3" points="2458,21442 2473,21441 2473,21499 2457,21501 "/>
   </g>
   <g>
    <polyline class="fil2 str3" points="2569,21403 2657,21387 2660,21484 2584,21499 2582,21411 2649,21399 2651,21473 2592,21485 2590,21421 2643,21410 2644,21466 2598,21475 2597,21432 2637,21423 2636,21458 2605,21463 2605,21444 2631,21439 2630,21452 2613,21454 "/>
    <polyline class="fil2 str3" points="2659,21387 2746,21372 2748,21467 2673,21478 2671,21394 2738,21383 2739,21456 2681,21465 2679,21404 2732,21393 2733,21450 2687,21455 2686,21415 2726,21405 2725,21442 2694,21444 2694,21426 2720,21421 2719,21433 2702,21435 "/>
    <polygon class="fil4 str3" points="2658,21410 2671,21409 2673,21459 2659,21462 "/>
   </g>
   <polygon class="fil4 str0" points="2752,21348 2763,21348 2763,21497 2752,21497 "/>
   <polygon class="fil4 str0" points="2933,21320 2944,21320 2944,21457 2933,21457 "/>
   <polygon class="fil4 str0" points="3110,21299 3119,21299 3119,21425 3110,21425 "/>
   <g>
    <polyline class="fil2 str3" points="2751,21377 2839,21362 2841,21458 2766,21473 2763,21385 2830,21373 2832,21447 2773,21460 2772,21395 2824,21384 2825,21440 2780,21449 2778,21407 2818,21397 2818,21432 2787,21438 2786,21418 2812,21413 2811,21426 2794,21428 "/>
    <polyline class="fil2 str3" points="2840,21361 2928,21346 2930,21441 2855,21452 2853,21368 2920,21357 2921,21431 2862,21440 2861,21378 2913,21368 2914,21424 2869,21429 2867,21389 2907,21380 2907,21416 2876,21418 2875,21400 2901,21395 2900,21407 2883,21409 "/>
    <polygon class="fil4 str3" points="2839,21384 2853,21383 2854,21433 2841,21436 "/>
   </g>
   <g>
    <polyline class="fil2 str4" points="2949,21354 3022,21341 3024,21421 2961,21433 2959,21360 3015,21350 3016,21412 2967,21422 2966,21369 3010,21360 3011,21406 2973,21413 2972,21378 3005,21370 3004,21399 2979,21404 2978,21387 3000,21383 2999,21394 2985,21396 "/>
    <polyline class="fil2 str4" points="3023,21340 3096,21328 3097,21406 3035,21416 3033,21347 3089,21337 3090,21398 3041,21405 3040,21354 3083,21346 3084,21393 3047,21397 3045,21363 3079,21356 3078,21386 3052,21388 3052,21372 3074,21368 3073,21379 3058,21380 "/>
    <polygon class="fil4 str4" points="3022,21360 3033,21359 3034,21400 3023,21402 "/>
   </g>
   <polygon class="fil4 str0" points="3269,21272 3278,21272 3278,21398 3269,21398 "/>
   <polygon class="fil2 str0" points="465,21726 584,19747 589,19666 8,19638 8,21663 "/>
   <polygon class="fil2 str0" points="8,19541 602,19563 589,19666 8,19638 "/>
   <polygon class="fil2 str0" points="602,19563 2515,19922 2951,20101 2942,20131 871,19760 666,19657 589,19666 "/>
   <polygon class="fil2 str0" points="595,19614 2840,20089 2763,21348 456,21714 "/>
   <polygon class="fil2 str0" points="8,19252 593,19490 590,19563 8,19541 "/>
   <polygon class="fil2 str0" points="602,19563 640,19570 648,19495 593,19490 "/>
   <polygon class="fil2 str0" points="648,19495 629,19426 593,19490 "/>
   <polygon class="fil2 str0" points="8,19140 629,19426 593,19490 8,19245 "/>
   <polygon class="fil2 str0" points="592,21437 720,21440 732,20881 596,20867 "/>
   <polygon class="fil2 str0" points="874,20878 998,20885 979,21428 861,21430 "/>
   <polygon class="fil2 str0" points="1107,20885 1226,20887 1218,21402 1086,21400 1094,20874 "/>
   <polygon class="fil2 str0" points="1301,21387 1386,21390 1383,20887 1293,20875 "/>
   <polygon class="fil2 str0" points="1483,21334 1575,21340 1594,20875 1470,20879 "/>
   <polygon class="fil2 str0" points="1644,21312 1745,21308 1764,20872 1651,20870 "/>
   <polygon class="fil2 str0" points="1817,20872 1920,20864 1894,21293 1817,21285 "/>
   <polygon class="fil2 str0" points="1962,21277 2047,21277 2059,20862 1950,20861 "/>
   <polygon class="fil2 str0" points="2115,21235 2196,21238 2203,20857 2096,20853 "/>
   <polygon class="fil2 str0" points="2236,21242 2311,21245 2314,20852 2224,20850 "/>
   <polygon class="fil2 str0" points="2379,21233 2421,21235 2435,20855 2346,20853 "/>
   <polyline class="fil2 str0" points="2460,21226 2547,21221 2548,20848 2465,20855 2474,21217 "/>
   <polygon class="fil2 str0" points="2581,21192 2645,21196 2657,20856 2574,20858 "/>
   <polygon class="fil2 str0" points="657,20475 791,20479 808,20110 618,20112 642,20475 "/>
   <polygon class="fil2 str0" points="915,20490 1045,20490 1065,20140 904,20127 "/>
   <polygon class="fil2 str0" points="1139,20494 1267,20503 1274,20170 1135,20153 "/>
   <polygon class="fil2 str0" points="1353,20522 1447,20522 1460,20185 1336,20170 "/>
   <polygon class="fil2 str0" points="1532,20526 1641,20533 1639,20227 1522,20215 "/>
   <polygon class="fil2 str0" points="1720,20541 1791,20541 1799,20234 1690,20225 "/>
   <polygon class="fil2 str0" points="1868,20248 1956,20258 1947,20574 1944,20575 1861,20561 "/>
   <polygon class="fil2 str0" points="2002,20277 2092,20278 2087,20559 2009,20558 2002,20269 "/>
   <polygon class="fil2 str0" points="2134,20558 2230,20554 2230,20282 2134,20274 "/>
   <polygon class="fil2 str0" points="2273,20571 2354,20571 2356,20291 2271,20299 "/>
   <polygon class="fil2 str0" points="2393,20332 2472,20338 2472,20586 2405,20584 "/>
   <polygon class="fil2 str0" points="2510,20334 2593,20336 2578,20579 2512,20577 "/>
   <polygon class="fil2 str0" points="2623,20355 2704,20361 2679,20586 2619,20588 "/>
   <polygon class="fil2 str0" points="2704,20361 2794,20368 2779,20596 2719,20598 "/>
   <polygon class="fil4 str0" points="843,19746 844,19789 667,19868 573,21412 555,21624 582,21622 678,20124 690,19877 878,19804 886,19762 "/>
   <polygon class="fil4 str0" points="1201,21547 1270,20391 1301,19958 1457,19900 1476,19924 1323,19973 1252,21043 1232,21576 1199,21562 "/>
   <polygon class="fil4 str5" points="1457,19900 1457,19854 1495,19872 1486,19924 "/>
   <polygon class="fil4 str0" points="1959,19955 1962,20002 1830,20053 1748,21496 1791,21490 1849,20231 1864,20070 1996,20019 2017,19965 "/>
   <polygon class="fil4 str0" points="2253,20107 2191,21410 2204,21343 2268,20128 2392,20087 2414,20036 2385,20031 2385,20079 "/>
   <polyline class="fil2 str6" points="2529,21385 2597,20175 2716,20137 2746,20096 "/>
   <path class="fil2 str0" d="M621 19567c-254,-139 -459,-255 -613,-347l0 -134c816,253 1652,532 2507,836 -1050,-197 -1681,-315 -1894,-355z"/>
   <polygon class="fil2 str0" points="1065,20140 937,20164 937,20490 1045,20490 "/>
   <polygon class="fil2 str0" points="788,20124 678,20124 666,20475 791,20479 787,20110 "/>
   <polyline class="fil2 str0" points="1168,20483 1164,20186 1273,20188 1253,20502 1167,20496 "/>
   <polyline class="fil2 str0" points="1448,20209 1362,20209 1362,20522 1447,20522 1459,20210 1459,20210 1459,20210 1459,20210 "/>
   <polygon class="fil2 str0" points="1639,20256 1546,20246 1550,20527 1641,20533 "/>
   <polygon class="fil2 str0" points="1725,20243 1725,20541 1803,20529 1799,20254 "/>
   <polygon class="fil2 str0" points="1943,20278 1892,20282 1888,20551 1948,20553 1950,20538 "/>
   <polygon class="fil2 str0" points="2084,20295 2020,20295 2037,20552 2087,20553 "/>
   <polyline class="fil2 str0" points="2214,20293 2156,20294 2161,20541 2232,20545 2230,20294 "/>
   <polygon class="fil2 str0" points="2281,20309 2356,20309 2354,20571 2293,20565 "/>
   <polygon class="fil2 str0" points="2472,20565 2405,20568 2424,20334 2472,20362 "/>
   <path class="fil2 str0" d="M2718 20569c6,-8 5,-4 5,-11l0 -196 47 3 9 230 -60 2 -3 -50"/>
   <polygon class="fil2 str0" points="2664,20358 2681,20565 2679,20586 2619,20585 2637,20356 "/>
   <path class="fil2 str0" d="M1404 20738c37,0 66,31 66,70 0,39 -30,70 -66,70 -37,0 -66,-31 -66,-70 0,-39 30,-70 66,-70z"/>
   <path class="fil2 str0" d="M2368 20720c37,0 66,30 66,67 0,37 -30,67 -66,67 -36,0 -66,-30 -66,-67 0,-37 30,-67 66,-67z"/>
   <path class="fil2 str0" d="M3453 20729c29,0 53,24 53,53 0,30 -24,53 -53,53 -29,0 -53,-24 -53,-53 0,-29 24,-53 53,-53z"/>
   <path class="fil2 str0" d="M2978 20719c29,0 52,24 52,54 0,30 -23,54 -52,54 -29,0 -52,-24 -52,-54 0,-30 23,-54 52,-54z"/>
   <path class="fil2 str0" d="M3833 20772c26,0 47,20 47,45 0,25 -21,45 -47,45 -26,0 -47,-20 -47,-45 0,-25 21,-45 47,-45z"/>
   <path class="fil2 str0" d="M4199 20808c17,0 30,15 30,34 0,19 -13,34 -30,34 -17,0 -30,-15 -30,-34 0,-19 13,-34 30,-34z"/>
   <path class="fil2 str0" d="M4352 20836c15,0 28,12 28,27 0,15 -12,27 -28,27 -15,0 -28,-12 -28,-27 0,-15 12,-27 28,-27z"/>
   <path class="fil2 str0" d="M4475 20859c12,0 21,11 21,24 0,13 -9,24 -21,24 -12,0 -21,-11 -21,-24 0,-13 9,-24 21,-24z"/>
   <path class="fil2 str0" d="M4100 20862c14,0 26,10 26,22 0,12 -11,22 -26,22 -14,0 -26,-10 -26,-22 0,-12 11,-22 26,-22z"/>
   <polygon class="fil4 str0" points="3570,21225 3579,21225 3579,21343 3570,21343 "/>
   <polygon class="fil4 str1" points="3727,21204 3736,21204 3736,21322 3727,21322 "/>
   <polygon class="fil4 str1" points="3968,21153 3977,21153 3977,21270 3968,21270 "/>
   <polygon class="fil4 str1" points="4114,21124 4123,21124 4123,21235 4114,21235 "/>
   <polygon class="fil4 str1" points="4256,21094 4265,21094 4265,21206 4256,21206 "/>
   <polygon class="fil4 str1" points="4391,21059 4400,21059 4400,21169 4391,21169 "/>
   <polygon class="fil4 str1" points="4535,21023 4544,21023 4544,21119 4535,21119 "/>
   <polyline class="fil2 str1" points="3136,21331 3256,21311 3256,21371 3135,21391 3135,21341 3245,21322 3242,21354 3245,21356 3150,21371 3150,21349 3231,21334 "/>
   <polyline class="fil2 str1" points="3306,21306 3427,21286 3427,21346 3305,21365 3305,21316 3415,21297 3413,21329 3415,21331 3320,21346 3320,21324 3402,21309 "/>
   <polyline class="fil2 str1" points="3461,21283 3568,21262 3568,21326 3461,21347 3461,21294 3558,21273 3556,21308 3558,21310 3474,21326 3474,21302 3546,21286 "/>
   <polyline class="fil2 str1" points="3594,21257 3716,21236 3716,21300 3593,21321 3593,21268 3704,21247 3702,21282 3704,21284 3608,21300 3608,21276 3690,21260 "/>
   <polyline class="fil2 str1" points="3744,21231 3835,21212 3837,21275 3746,21294 3744,21241 3827,21222 3826,21257 3828,21259 3756,21274 3756,21250 3817,21235 "/>
   <polyline class="fil2 str1" points="3851,21203 3961,21184 3964,21247 3853,21266 3851,21213 3951,21194 3950,21229 3952,21231 3865,21246 3865,21222 3939,21207 "/>
   <polyline class="fil2 str1" points="3992,21172 4102,21153 4105,21216 3994,21236 3992,21182 4092,21164 4091,21198 4094,21200 4007,21215 4006,21191 4080,21177 "/>
   <polyline class="fil2 str1" points="4130,21144 4240,21125 4243,21189 4132,21208 4130,21155 4230,21136 4229,21171 4231,21172 4144,21187 4144,21163 4218,21149 "/>
   <polyline class="fil2 str1" points="4272,21110 4382,21082 4385,21145 4275,21173 4272,21120 4373,21094 4372,21128 4374,21130 4287,21152 4286,21128 4360,21107 "/>
   <polyline class="fil2 str1" points="4415,21077 4519,21051 4522,21110 4418,21137 4415,21087 4510,21062 4509,21094 4511,21096 4429,21117 4429,21094 4498,21075 "/>
   <polygon class="fil2 str2" points="341,19064 668,19071 820,18917 702,18885 626,19071 517,19062 493,18878 290,18885 380,19062 "/>
   <polygon class="fil2 str0" points="209,18887 290,18885 380,19062 341,19064 "/>
   <polygon class="fil2 str0" points="493,18878 702,18885 626,19070 517,19062 "/>
   <polygon class="fil2 str0" points="341,19064 668,19071 666,19294 336,19189 "/>
   <polygon class="fil2 str0" points="209,18887 209,18614 292,18596 497,18596 702,18603 813,18637 828,18643 820,18917 702,18885 504,18879 290,18885 "/>
   <polygon class="fil2 str0" points="290,18885 292,18596 497,18596 504,18879 "/>
   <polygon class="fil2 str2" points="702,18603 702,18885 820,18917 821,18640 "/>
   <polygon class="fil2 str2" points="209,18614 271,18562 465,18545 649,18549 775,18586 828,18643 702,18603 474,18596 292,18596 "/>
   <polygon class="fil2 str0" points="482,18546 485,18479 596,18481 594,18548 "/>
   <polygon class="fil2 str2" points="540,18272 564,18336 630,18338 574,18364 591,18426 542,18385 487,18430 510,18364 444,18340 525,18332 "/>
   <polygon class="fil2 str0" points="538,18474 540,18392 545,18395 550,18476 "/>
   <polygon class="fil2 str0" points="1792,19669 2167,19674 3187,19991 3076,19991 2733,20012 "/>
   <polygon class="fil2 str0" points="3033,20670 3054,20067 2890,20076 2709,20002 3132,19991 3127,20700 "/>
   <polygon class="fil2 str0" points="2805,20660 3033,20670 3054,20067 2747,20069 "/>
   <polygon class="fil2 str3" points="744,18994 897,19008 888,19042 931,19038 922,19000 1068,19008 1055,19055 1115,19055 1140,19021 1226,19029 1209,19472 1287,19498 1281,19414 1367,19414 1364,19524 1478,19521 1474,19401 1644,19405 1644,19350 1815,19367 1807,19346 1862,19354 1879,19388 1952,19457 2003,19465 2025,19410 2200,19422 2191,19487 2418,19495 2409,19465 2721,19474 2712,19529 2977,19538 2981,19508 3225,19521 3233,19576 3426,19581 3438,19619 3639,19610 3669,19666 3742,19666 3746,19743 4242,19739 4370,19764 4942,19798 5113,19824 5134,19798 5181,19794 5181,19739 5305,19747 5309,19786 5442,19790 5450,19730 5476,19739 5476,19790 5621,19790 5728,19803 5732,19841 5766,19841 5775,19892 5852,19897 5843,19935 5963,19948 5972,20161 6134,20153 6147,19961 6343,19965 6326,19871 6433,19862 6441,19991 6565,19982 6552,19773 6655,19773 6659,19850 6715,19854 6706,19367 6664,19350 6672,19320 6728,19316 6740,19294 6945,19307 6997,19320 7014,19290 7061,19281 7065,19333 7215,19341 7210,19367 7240,19358 7249,19388 7313,19393 7317,19427 7291,19427 7296,20080 7360,20085 7368,20161 7445,20161 7467,20093 7526,20080 7535,20132 7633,20132 7629,20059 7680,20067 7719,20059 7719,19491 7710,19448 7672,19444 7672,19405 7749,19397 7774,19358 8094,19350 8099,19435 8214,19435 8214,19469 8291,19469 8295,19499 8334,19499 8334,19538 8300,19538 8282,20196 8385,20187 8381,20102 8851,20106 8833,20166 9081,20174 9090,20448 9068,20785 11016,20815 11046,20802 11132,20759 11311,20759 11328,21076 11097,21084 10495,21058 8932,20943 8065,20900 7445,20845 6847,20798 6245,20789 5728,20759 5241,20747 4852,20721 4447,20730 4045,20721 3669,20704 3302,20683 3127,20681 3127,19991 2914,19906 2167,19674 1817,19678 1142,19450 665,19294 668,19071 "/>
   <polygon class="fil2 str0" points="3635,20853 3643,20853 3643,21084 3635,21084 "/>
   <polygon class="fil2 str0" points="3302,20847 3308,20847 3308,21088 3302,21088 "/>
   <polygon class="fil2 str0" points="3526,20856 3532,20856 3532,21097 3526,21097 "/>
   <polygon class="fil2 str0" points="3750,20832 3757,20832 3757,21073 3750,21073 "/>
   <polygon class="fil2 str0" points="3863,20851 3870,20851 3870,21078 3863,21078 "/>
   <polygon class="fil2 str0" points="3955,20843 3962,20843 3962,21069 3955,21069 "/>
   <polygon class="fil2 str0" points="4068,20814 4075,20814 4075,21040 4068,21040 "/>
   <polygon class="fil2 str0" points="3308,20885 3442,20885 3526,20885 3635,20875 3750,20875 3841,20861 3955,20861 4068,20861 4068,21040 3955,21069 3870,21078 3750,21073 3635,21084 3532,21084 3308,21084 "/>
   <polygon class="fil2 str0" points="2802,20704 3024,20712 3146,20759 3127,20700 3033,20670 2805,20656 2801,20718 "/>
   <polyline class="fil2 str0" points="3169,20759 3368,20815 3374,20787 3127,20657 3146,20759 "/>
   <polygon class="fil2 str0" points="3342,20819 3342,21084 3043,21101 3045,20721 "/>
   <polygon class="fil2 str0" points="2776,21127 3043,21101 3045,20721 2802,20704 "/>
   <polygon class="fil2 str0" points="3127,20454 3372,20565 3396,20533 3129,20364 "/>
   <polygon class="fil2 str0" points="3322,20542 3324,20761 3127,20646 3127,20454 "/>
   <path class="fil2 str0" d="M4126 20884c1107,57 1786,104 2036,140 1941,139 2958,260 3118,295 1512,241 2584,427 3216,560"/>
   <path class="fil2 str0" d="M6546 21052c1168,90 1841,146 2020,166 708,57 1109,109 1182,135 885,124 1838,279 2749,451"/>
   <path class="fil2 str0" d="M10229 18278c727,0 1316,587 1316,1311 0,724 -589,1311 -1316,1311 -727,0 -1316,-587 -1316,-1311 0,-724 589,-1311 1316,-1311z"/>
   <path class="fil2 str0" d="M10253 18304c728,0 1318,584 1318,1305 0,721 -590,1305 -1318,1305 -728,0 -1318,-584 -1318,-1305 0,-721 590,-1305 1318,-1305z"/>
   <polygon class="fil2 str0" points="9665,21038 10253,19609 10293,19637 9713,21001 "/>
   <polygon class="fil2 str0" points="10174,19671 9388,21038 9430,21038 "/>
   <polyline class="fil2 str0" points="10214,19703 9593,21025 9529,21034 10226,19673 10226,19673 10226,19673 "/>
   <polygon class="fil2 str0" points="10930,20987 10293,19637 10866,20957 "/>
   <polygon class="fil2 str0" points="10285,19714 10784,21008 10823,20987 "/>
   <polyline class="fil2 str0" points="10276,19825 10622,20970 10669,20953 10327,19940 10259,19791 10289,19876 "/>
   <polygon class="fil2 str0" points="9441,21018 10174,19671 10273,19623 9563,20918 9529,21034 "/>
   <polyline class="fil2 str0" points="10468,18347 10253,19609 10532,18333 10471,18322 10473,18322 "/>
   <polygon class="fil2 str0" points="10293,19637 10906,18476 10861,18451 "/>
   <polygon class="fil2 str0" points="10273,19623 11235,18744 11195,18697 "/>
   <polygon class="fil2 str0" points="11543,19530 11566,19505 10310,19604 11453,19106 11442,19080 10273,19623 "/>
   <polygon class="fil2 str0" points="10293,19637 11526,19945 11508,19900 "/>
   <polygon class="fil2 str0" points="11122,20590 11070,20598 10253,19609 "/>
   <polygon class="fil2 str0" points="10287,19651 11383,20281 11372,20240 "/>
   <polygon class="fil2 str0" points="10363,20894 10249,19666 10323,20898 "/>
   <polygon class="fil2 str0" points="9955,20881 10240,19639 10020,20885 "/>
   <polygon class="fil2 str0" points="9270,20479 10174,19671 9324,20487 "/>
   <polyline class="fil2 str0" points="9048,20139 10223,19647 9036,20113 9064,20174 9063,20171 9097,20124 "/>
   <polygon class="fil2 str0" points="8916,19666 10223,19647 8914,19633 "/>
   <polyline class="fil2 str0" points="8977,19282 10223,19647 8984,19254 8959,19247 "/>
   <polyline class="fil2 str0" points="9131,18867 10223,19647 9154,18834 9152,18836 "/>
   <polygon class="fil2 str0" points="9469,18560 10249,19666 9464,18523 "/>
   <polygon class="fil2 str0" points="10240,19639 9978,18302 10004,18298 "/>
   <path class="fil2 str0" d="M10208 18543c561,0 1017,476 1017,1064 0,587 -455,1064 -1017,1064 -561,0 -1017,-476 -1017,-1064 0,-587 455,-1064 1017,-1064z"/>
   <polyline class="fil2 str0" points="10587,20852 10345,20692 10178,20912 10039,20656 9756,20818 9706,20532 9456,20615 9474,20343 9150,20325 9280,20042 8974,19926 9192,19662 8922,19436 9226,19331 9074,19025 9075,19023 "/>
   <polygon class="fil2 str0" points="11152,21021 11160,20816 12496,20821 12496,21114 12203,21196 11831,21196 11310,21175 11113,21158 "/>
   <polygon class="fil2 str0" points="11089,20781 11541,20781 11541,20817 11089,20817 "/>
   <polygon class="fil2 str0" points="11289,20671 12496,20671 12496,20705 11289,20705 "/>
   <polygon class="fil2 str0" points="11262,20402 12496,20402 12496,20671 11262,20671 "/>
   <polygon class="fil2 str0" points="11212,20312 12496,20312 12496,20402 11212,20402 "/>
   <polygon class="fil2 str0" points="11545,20269 12237,20269 12237,20312 11545,20312 "/>
   <polygon class="fil2 str0" points="11686,20222 12070,20222 12070,20269 11686,20269 "/>
   <path class="fil2 str0" d="M12496 19861l-157 -2c-6,84 46,135 157,154l0 -153z"/>
   <path class="fil2 str0" d="M12496 20397c-659,4 -878,-54 -657,-175 217,-123 436,-205 657,-246l0 421z"/>
   <path class="fil2 str0" d="M3632 20794c-13,-94 -58,-173 -135,-235 -27,-55 -15,-167 36,-338 -121,-373 -224,-606 -308,-700"/>
   <path class="fil2 str0" d="M3664 20776c-54,-144 -30,-263 71,-356 131,53 261,-62 392,-345"/>
   <path class="fil2 str0" d="M3736 20420c96,-330 179,-540 249,-630"/>
   <path class="fil2 str0" d="M3558 20584c68,-377 48,-686 -61,-926"/>
   <path class="fil2 str0" d="M3583 19858c34,-192 131,-338 288,-438"/>
   <path class="fil2 str0" d="M3818 20242c24,-141 118,-260 281,-356"/>
   <path class="fil2 str0" d="M3864 19940c28,-88 12,-185 -46,-292"/>
   <path class="fil2 str0" d="M3501 19616c-23,-106 -8,-168 46,-186"/>
   <path class="fil2 str0" d="M3504 19733c-47,-105 -100,-195 -160,-271"/>
   <path class="fil2 str0" d="M3492 20389c-64,-298 -147,-424 -251,-378"/>
   <path class="fil2 str0" d="M3585 20398c-22,205 21,220 130,44"/>
   <line class="fil2 str0" x1="4780" y1="20883" x2="4779" y2= "20555" />
   <line class="fil2 str0" x1="4659" y1="20877" x2="4657" y2= "20550" />
   <line class="fil2 str0" x1="5343" y1="20918" x2="5341" y2= "20591" />
   <line class="fil2 str0" x1="5215" y1="20865" x2="5213" y2= "20538" />
   <line class="fil2 str0" x1="4780" y1="20883" x2="4779" y2= "20555" />
   <line class="fil2 str0" x1="4885" y1="20861" x2="4883" y2= "20534" />
   <line class="fil2 str0" x1="5700" y1="20879" x2="5698" y2= "20552" />
   <line class="fil2 str0" x1="6501" y1="20918" x2="6499" y2= "20591" />
   <line class="fil2 str0" x1="6526" y1="20918" x2="6524" y2= "20591" />
   <line class="fil2 str0" x1="6163" y1="20901" x2="6161" y2= "20573" />
   <line class="fil2 str0" x1="6116" y1="20904" x2="6115" y2= "20577" />
   <line class="fil2 str0" x1="5960" y1="20904" x2="5958" y2= "20577" />
   <line class="fil2 str0" x1="5796" y1="20904" x2="5794" y2= "20577" />
   <line class="fil2 str0" x1="5739" y1="20897" x2="5737" y2= "20570" />
   <line class="fil2 str0" x1="6246" y1="20992" x2="6244" y2= "20665" />
   <line class="fil2 str0" x1="6444" y1="20950" x2="6442" y2= "20623" />
   <line class="fil2 str0" x1="6775" y1="20947" x2="6773" y2= "20619" />
   <line class="fil2 str0" x1="7209" y1="20965" x2="7208" y2= "20637" />
   <line class="fil2 str0" x1="7277" y1="20965" x2="7275" y2= "20637" />
   <line class="fil2 str0" x1="7327" y1="20886" x2="7325" y2= "20559" />
   <line class="fil2 str0" x1="7088" y1="20822" x2="7086" y2= "20495" />
   <line class="fil2 str0" x1="6946" y1="20819" x2="6944" y2= "20491" />
   <line class="fil2 str0" x1="6947" y1="20986" x2="6945" y2= "20659" />
   <line class="fil2 str0" x1="6718" y1="20965" x2="6716" y2= "20637" />
   <line class="fil2 str0" x1="6643" y1="20765" x2="6642" y2= "20438" />
   <line class="fil2 str0" x1="6519" y1="20573" x2="6517" y2= "20246" />
   <line class="fil2 str0" x1="6241" y1="20716" x2="6239" y2= "20388" />
   <line class="fil2 str0" x1="5906" y1="20862" x2="5905" y2= "20534" />
   <line class="fil2 str0" x1="5515" y1="20840" x2="5513" y2= "20513" />
   <line class="fil2 str0" x1="5342" y1="20847" x2="5340" y2= "20520" />
   <line class="fil2 str0" x1="5041" y1="20808" x2="5040" y2= "20481" />
   <line class="fil2 str0" x1="4735" y1="20755" x2="4734" y2= "20427" />
   <line class="fil2 str0" x1="4582" y1="20872" x2="4580" y2= "20545" />
   <line class="fil2 str0" x1="4376" y1="20837" x2="4374" y2= "20509" />
   <line class="fil2 str0" x1="4440" y1="20829" x2="4438" y2= "20502" />
   <line class="fil2 str0" x1="7800" y1="21125" x2="7798" y2= "20797" />
   <line class="fil2 str0" x1="7992" y1="21111" x2="7990" y2= "20783" />
   <line class="fil2 str0" x1="7907" y1="21118" x2="7905" y2= "20790" />
   <line class="fil2 str0" x1="7756" y1="21036" x2="7754" y2= "20709" />
   <line class="fil2 str0" x1="7327" y1="20999" x2="7326" y2= "20672" />
   <line class="fil2 str0" x1="7328" y1="21050" x2="7326" y2= "20723" />
   <line class="fil2 str0" x1="7756" y1="21036" x2="7754" y2= "20709" />
   <line class="fil2 str0" x1="7799" y1="20961" x2="7797" y2= "20634" />
   <line class="fil2 str0" x1="7558" y1="20933" x2="7556" y2= "20605" />
   <line class="fil2 str0" x1="7799" y1="20961" x2="7797" y2= "20634" />
   <line class="fil2 str0" x1="7665" y1="20954" x2="7663" y2= "20626" />
   <line class="fil2 str0" x1="8220" y1="21072" x2="8218" y2= "20744" />
   <line class="fil2 str0" x1="8499" y1="21086" x2="8497" y2= "20758" />
   <line class="fil2 str0" x1="8611" y1="21091" x2="8609" y2= "20764" />
   <line class="fil2 str0" x1="8782" y1="20990" x2="8781" y2= "20662" />
   <line class="fil2 str0" x1="8875" y1="20982" x2="8873" y2= "20655" />
   <line class="fil2 str0" x1="8975" y1="20997" x2="8973" y2= "20669" />
   <line class="fil2 str0" x1="9167" y1="20997" x2="9165" y2= "20669" />
   <line class="fil2 str0" x1="9252" y1="21018" x2="9251" y2= "20691" />
   <line class="fil2 str0" x1="9338" y1="21039" x2="9336" y2= "20712" />
   <line class="fil2 str0" x1="9338" y1="21039" x2="9336" y2= "20712" />
   <line class="fil2 str0" x1="9338" y1="21039" x2="9336" y2= "20712" />
   <polygon class="fil2 str0" points="9167,20997 9159,21121 9458,21178 9465,21064 "/>
   <polygon class="fil2 str0" points="9465,21064 9501,21057 9956,21057 9963,21171 9458,21178 "/>
   <polygon class="fil2 str0" points="9956,21057 9724,20977 9167,20997 9465,21064 "/>
   <line class="fil2 str0" x1="11918" y1="21281" x2="11913" y2= "21681" />
   <line class="fil2 str0" x1="11113" y1="21158" x2="11112" y2= "21520" />
   <line class="fil2 str0" x1="10537" y1="21132" x2="10548" y2= "21443" />
   <line class="fil2 str0" x1="9882" y1="21118" x2="9856" y2= "21364" />
   <path class="fil2 str0" d="M11906 21164c29,0 53,28 53,63 0,35 -24,63 -53,63 -29,0 -53,-28 -53,-63 0,-35 24,-63 53,-63z"/>
   <path class="fil2 str0" d="M10531 21056c22,0 39,15 39,33 0,18 -18,33 -39,33 -22,0 -39,-15 -39,-33 0,-18 18,-33 39,-33z"/>
   <path class="fil2 str0" d="M9888 21059c23,0 41,18 41,39 0,22 -18,39 -41,39 -23,0 -41,-18 -41,-39 0,-22 18,-39 41,-39z"/>
   <polygon class="fil2 str0" points="12327,21755 12337,21755 12337,21844 12327,21844 "/>
   <polygon class="fil2 str0" points="12146,21725 12156,21725 12156,21809 12146,21809 "/>
   <polyline class="fil2 str0" points="12496,19854 12339,19859 12323,19616 11967,19616 11925,20000 11668,20015 11686,20222 "/>
   <path class="fil2 str0" d="M12353 21805l-4 28 148 30m0 -16l-1 -6 -130 -27"/>
   <polyline class="fil2 str0" points="12176,21774 12176,21796 12304,21822 12302,21808 12197,21788 "/>
   <line class="fil2 str0" x1="12193" y1="21775" x2="12286" y2= "21794" />
   <polygon class="fil2 str0" points="11967,21696 11977,21696 11977,21775 11967,21775 "/>
   <polygon class="fil2 str0" points="11805,21673 11814,21673 11814,21751 11805,21751 "/>
   <polygon class="fil2 str0" points="11647,21643 11656,21643 11656,21721 11647,21721 "/>
   <polygon class="fil2 str0" points="11490,21611 11500,21611 11500,21689 11490,21689 "/>
   <polygon class="fil2 str0" points="11364,21591 11373,21591 11373,21669 11364,21669 "/>
   <polygon class="fil2 str0" points="11241,21571 11251,21571 11251,21650 11241,21650 "/>
   <polygon class="fil2 str0" points="11125,21548 11135,21548 11135,21627 11125,21627 "/>
   <polygon class="fil2 str0" points="11013,21532 11023,21532 11023,21605 11013,21605 "/>
   <polygon class="fil2 str0" points="10919,21520 10929,21520 10929,21589 10919,21589 "/>
   <polygon class="fil2 str0" points="10822,21502 10832,21502 10832,21568 10822,21568 "/>
   <polygon class="fil2 str0" points="10717,21485 10727,21485 10727,21555 10717,21555 "/>
   <polygon class="fil2 str0" points="10611,21469 10621,21469 10621,21539 10611,21539 "/>
   <polygon class="fil2 str0" points="10518,21457 10528,21457 10528,21519 10518,21519 "/>
   <polygon class="fil2 str0" points="10425,21436 10435,21436 10435,21506 10425,21506 "/>
   <polygon class="fil2 str0" points="10320,21429 10330,21429 10330,21493 10320,21493 "/>
   <polygon class="fil2 str0" points="10236,21415 10246,21415 10246,21476 10236,21476 "/>
   <polyline class="fil2 str0" points="3664,20776 3693,20875 3643,20875 3632,20794 3622,20742 "/>
   <polyline class="fil2 str0" points="11993,21728 11992,21762 12132,21789 12133,21760 12126,21759 12009,21735 12010,21753 12113,21770 "/>
   <polyline class="fil2 str2" points="11828,21696 11828,21735 11951,21759 11950,21721 11837,21704 11933,21740 "/>
   <polyline class="fil2 str0" points="11675,21673 11674,21700 11787,21727 11788,21693 11697,21688 11698,21687 "/>
   <polyline class="fil2 str0" points="11517,21648 11519,21673 11620,21695 11624,21668 11538,21652 "/>
   <polyline class="fil2 str0" points="11395,21617 11395,21659 11473,21671 11470,21639 11413,21636 "/>
   <polyline class="fil2 str0" points="11281,21605 11284,21630 11344,21646 11334,21614 11299,21611 11303,21608 11295,21613 "/>
   <polyline class="fil2 str0" points="11151,21581 11150,21605 11220,21625 11216,21598 11186,21587 "/>
   <polyline class="fil2 str0" points="11040,21561 11038,21592 11108,21606 11097,21581 11097,21580 "/>
   <polyline class="fil2 str0" points="10992,21571 10952,21562 10987,21557 10989,21580 "/>
   <polyline class="fil2 str0" points="10850,21541 10898,21548 10856,21558 10894,21568 "/>
   <polyline class="fil2 str0" points="10739,21517 10803,21534 10751,21542 10792,21554 "/>
   <polyline class="fil2 str0" points="10645,21495 10693,21525 10621,21525 10648,21517 "/>
   <line class="fil2 str0" x1="10528" y1="21488" x2="10595" y2= "21513" />
   <polyline class="fil2 str0" points="10481,21490 10454,21474 10472,21495 10518,21495 10518,21488 "/>
   <polyline class="fil2 str0" points="10355,21456 10425,21471 10346,21479 "/>
   <polyline class="fil2 str0" points="10246,21445 10266,21445 10303,21452 10294,21460 "/>
   <line class="fil2 str0" x1="10145" y1="21459" x2="10145" y2= "21399" />
   <line class="fil2 str0" x1="10042" y1="21442" x2="10042" y2= "21387" />
   <line class="fil2 str0" x1="9961" y1="21423" x2="9961" y2= "21372" />
   <line class="fil2 str0" x1="9880" y1="21415" x2="9880" y2= "21365" />
   <line class="fil2 str0" x1="9800" y1="21402" x2="9800" y2= "21354" />
   <line class="fil2 str0" x1="9736" y1="21392" x2="9738" y2= "21350" />
   <line class="fil2 str0" x1="9666" y1="21381" x2="9665" y2= "21335" />
   <line class="fil2 str0" x1="9598" y1="21370" x2="9599" y2= "21324" />
   <line class="fil2 str0" x1="9544" y1="21361" x2="9540" y2= "21316" />
   <line class="fil2 str0" x1="9478" y1="21351" x2="9476" y2= "21308" />
   <line class="fil2 str0" x1="9401" y1="21332" x2="9400" y2= "21298" />
   <line class="fil2 str0" x1="9327" y1="21326" x2="9323" y2= "21290" />
   <line class="fil2 str0" x1="9225" y1="21309" x2="9222" y2= "21279" />
   <line class="fil2 str0" x1="9272" y1="21317" x2="9270" y2= "21284" />
   <line class="fil2 str0" x1="9168" y1="21295" x2="9171" y2= "21273" />
   <line class="fil2 str0" x1="9096" y1="21290" x2="9098" y2= "21266" />
   <line class="fil2 str0" x1="9026" y1="21281" x2="9028" y2= "21259" />
   <line class="fil2 str0" x1="8971" y1="21274" x2="8973" y2= "21254" />
   <line class="fil2 str0" x1="8912" y1="21267" x2="8914" y2= "21248" />
   <line class="fil2 str0" x1="8864" y1="21262" x2="8859" y2= "21243" />
   <polyline class="fil2 str0" points="10157,21425 10220,21436 10219,21453 10160,21443 10156,21430 10157,21429 10159,21429 "/>
   <polyline class="fil2 str0" points="10061,21415 10123,21426 10123,21443 10064,21432 10060,21419 10061,21419 10063,21418 "/>
   <polyline class="fil2 str0" points="9970,21399 10033,21411 10032,21427 9973,21417 9969,21404 9970,21403 9973,21403 "/>
   <polyline class="fil2 str0" points="9882,21385 9945,21396 9944,21413 9885,21403 9881,21390 9882,21389 9885,21389 "/>
   <polyline class="fil2 str0" points="9808,21374 9871,21385 9870,21402 9811,21391 9807,21379 9808,21378 9811,21378 "/>
   <polyline class="fil2 str0" points="9739,21364 9801,21375 9800,21392 9742,21382 9738,21369 9739,21368 9741,21368 "/>
   <polyline class="fil2 str0" points="9672,21350 9735,21361 9734,21378 9675,21367 9671,21355 9672,21354 9675,21353 "/>
   <polyline class="fil2 str0" points="9597,21338 9660,21350 9659,21367 9601,21356 9597,21343 9597,21342 9600,21342 "/>
   <polyline class="fil2 str0" points="9605,21342 9667,21353 9666,21370 9608,21359 9604,21347 9605,21346 9607,21346 "/>
   <polyline class="fil2 str0" points="9532,21328 9595,21339 9594,21356 9535,21345 9531,21333 9532,21332 9535,21331 "/>
   <polyline class="fil2 str0" points="9475,21322 9538,21334 9537,21350 9478,21340 9474,21327 9475,21326 9478,21326 "/>
   <polyline class="fil2 str0" points="9403,21311 9466,21322 9465,21339 9406,21329 9402,21316 9403,21315 9406,21315 "/>
   <polyline class="fil2 str0" points="9334,21302 9397,21313 9396,21330 9337,21319 9333,21307 9334,21306 9337,21306 "/>
   <polyline class="fil2 str0" points="9261,21290 9324,21301 9323,21318 9264,21307 9260,21294 9261,21294 9264,21293 "/>
   <polyline class="fil2 str0" points="9217,21294 9259,21302 9259,21313 9220,21306 9217,21298 9217,21297 9219,21297 "/>
   <polyline class="fil2 str1" points="9252,21291 9315,21302 9314,21319 9255,21309 9251,21296 9252,21295 9255,21295 "/>
   <polyline class="fil2 str1" points="9170,21279 9233,21290 9232,21307 9173,21297 9169,21284 9170,21283 9173,21283 "/>
   <polyline class="fil2 str1" points="9104,21269 9166,21280 9166,21297 9107,21286 9103,21274 9104,21273 9106,21273 "/>
   <polyline class="fil2 str1" points="9044,21263 9107,21274 9106,21291 9047,21280 9043,21268 9044,21267 9047,21266 "/>
   <polyline class="fil2 str1" points="9044,21262 9106,21273 9105,21290 9047,21280 9043,21267 9044,21266 9046,21266 "/>
   <polyline class="fil2 str1" points="9105,21277 9168,21288 9167,21305 9108,21295 9104,21282 9105,21281 9108,21281 "/>
   <polyline class="fil2 str1" points="8971,21254 9034,21266 9033,21283 8974,21272 8970,21259 8971,21258 8974,21258 "/>
   <polyline class="fil2 str1" points="8971,21254 9034,21266 9033,21283 8974,21272 8970,21259 8971,21258 8974,21258 "/>
   <line class="fil2 str0" x1="9083" y1="21285" x2="9085" y2= "21262" />
   <line class="fil2 str0" x1="9083" y1="21285" x2="9085" y2= "21262" />
   <path class="fil2 str0" d="M12496 21489c-706,-101 -1549,-210 -2533,-318 1095,212 1940,370 2533,475l0 -157z"/>
   <path class="fil2 str0" d="M3827 21293c161,78 315,93 462,46 157,-25 146,-69 -33,-134"/>
   <path class="fil2 str0" d="M4357 21165c143,115 258,118 345,10 37,-53 -16,-88 -157,-105"/>
   <path class="fil2 str0" d="M4648 21001c496,45 885,84 1168,117"/>
   <path class="fil2 str0" d="M5976 21129c864,65 1427,115 1687,150"/>
   <path class="fil2 str0" d="M7742 21286c679,66 1292,161 1837,285"/>
   <path class="fil2 str0" d="M9623 21617c2,-49 35,-69 101,-61 82,-2 138,-26 171,-73 -174,-28 -264,-21 -269,21 -27,36 -35,75 -25,116"/>
   <path class="fil2 str0" d="M12496 22582c-1026,-397 -1686,-629 -1980,-696"/>
   <path class="fil2 str0" d="M9717 21603c297,89 554,180 772,274"/>
   <path class="fil2 str0" d="M12010 22336c167,28 329,35 487,21"/>
   <path class="fil2 str0" d="M5083 21232c346,48 630,75 854,82 759,80 1198,113 1317,100 140,-17 0,0 -420,50 148,145 -165,190 -940,135 -125,52 -291,83 -498,93 1099,32 1234,96 406,192 -674,-2 -1011,-3 -1011,-3"/>
   <path class="fil2 str0" d="M6129 21927c717,33 1075,50 1075,50 475,617 712,926 712,926 233,-5 349,-7 349,-7 -90,71 -135,107 -135,107 323,5 498,8 527,7 -380,84 -530,129 -449,135 446,30 672,44 676,43 -521,46 -744,67 -669,64 774,1125 1160,1687 1160,1687 1274,272 1958,386 2050,342 -698,40 -1161,76 -1388,107l2459 309m0 244l-2744 30c1047,69 1961,133 2744,193m0 587l-245 10 245 29"/>
   <path class="fil2 str0" d="M8781 20766c-6,-168 22,-355 85,-559"/>
   <path class="fil2 str0" d="M8781 20662c-11,-260 -83,-370 -217,-330"/>
   <path class="fil2 str0" d="M8719 20386c16,-103 38,-197 65,-281"/>
   <path class="fil2 str0" d="M8973 20691c11,-150 49,-276 112,-380"/>
   <path class="fil2 str0" d="M12496 22972c-832,-29 -1218,27 -1156,168 474,212 860,329 1156,352"/>
   <path class="fil2 str0" d="M12053 22965c-562,-23 -914,9 -1054,97 254,338 754,527 1498,568"/>
   <path class="fil4 str0" d="M10290 23358c-2,61 34,85 110,71 -28,-53 -65,-77 -110,-71z"/>
   <path class="fil4 str0" d="M10174 22963c-1,23 13,32 42,27 -11,-20 -25,-29 -42,-27z"/>
   <path class="fil4 str0" d="M10199 22880c-2,46 26,64 83,53 -21,-40 -49,-58 -83,-53z"/>
   <path class="fil4 str0" d="M10370 23077c-2,46 26,64 83,53 -21,-40 -49,-58 -83,-53z"/>
   <path class="fil4 str0" d="M10103 23031c-2,46 26,64 83,53 -21,-40 -49,-58 -83,-53z"/>
   <path class="fil4 str0" d="M9975 23127c-2,46 26,64 83,53 -21,-40 -49,-58 -83,-53z"/>
   <path class="fil4 str0" d="M10309 23127c-2,46 26,64 83,53 -21,-40 -49,-58 -83,-53z"/>
   <path class="fil4 str0" d="M10366 23195c-2,46 26,64 83,53 -21,-40 -49,-58 -83,-53z"/>
   <path class="fil4 str0" d="M10024 23298c-2,61 34,84 109,70 -28,-53 -64,-76 -109,-70z"/>
   <path class="fil4 str0" d="M9469 22920c-2,46 26,64 83,53 -21,-40 -49,-58 -83,-53z"/>
   <path class="fil4 str0" d="M9485 22859c-2,46 26,64 83,53 -21,-40 -49,-58 -83,-53z"/>
   <path class="fil4 str0" d="M9352 22874c-2,46 26,64 83,53 -21,-40 -49,-58 -83,-53z"/>
   <path class="fil4 str0" d="M9160 22856c-2,46 26,64 83,53 -21,-40 -49,-58 -83,-53z"/>
   <path class="fil4 str0" d="M10419 22884c-1,23 13,32 42,27 -11,-20 -25,-29 -42,-27z"/>
   <path class="fil4 str0" d="M10478 22871c-1,23 13,32 42,27 -11,-20 -25,-29 -42,-27z"/>
   <path class="fil4 str0" d="M10579 22895c-1,23 13,32 42,27 -11,-20 -25,-29 -42,-27z"/>
   <path class="fil4 str0" d="M10638 23026c-1,23 13,32 42,27 -11,-20 -25,-29 -42,-27z"/>
   <path class="fil4 str0" d="M10561 23110c-1,23 13,33 42,27 -11,-20 -25,-29 -42,-27z"/>
   <path class="fil4 str0" d="M10853 23056c-1,23 13,32 42,27 -11,-20 -25,-29 -42,-27z"/>
   <path class="fil4 str0" d="M11446 23071c-1,23 13,33 42,27 -11,-20 -25,-29 -42,-27z"/>
   <path class="fil4 str0" d="M11407 23118c-1,23 13,32 42,27 -11,-20 -25,-29 -42,-27z"/>
   <path class="fil4 str0" d="M11212 23919c-2,61 34,85 110,71 -28,-53 -65,-77 -110,-71z"/>
   <path class="fil4 str0" d="M9728 23300c-2,49 27,68 88,57 -23,-43 -52,-62 -88,-57z"/>
   <path class="fil4 str0" d="M9470 23416c-2,49 27,68 88,57 -23,-43 -52,-62 -88,-57z"/>
   <path class="fil4 str0" d="M9226 23478c-2,49 27,68 88,57 -23,-43 -52,-62 -88,-57z"/>
   <path class="fil4 str0" d="M9130 23501c-2,61 34,85 110,71 -28,-53 -65,-77 -110,-71z"/>
   <path class="fil4 str0" d="M11364 22850c-1,23 13,32 42,27 -11,-20 -25,-29 -42,-27z"/>
   <path class="fil2 str0" d="M4375 20673c-153,-126 -177,-255 -70,-386 28,-221 130,-231 306,-28 -57,-309 11,-465 207,-467 213,12 284,163 213,453 173,-31 242,2 206,100 -131,-395 -27,-580 311,-554 214,94 274,233 180,418 341,-59 400,50 176,326"/>
   <path class="fil2 str0" d="M6031 20250c121,-216 237,-235 346,-56"/>
   <path class="fil2 str0" d="M6377 20194c77,-348 224,-415 441,-199 166,280 83,451 -249,513"/>
   <path class="fil2 str0" d="M6869 20096c76,-270 218,-290 426,-59"/>
   <path class="fil2 str0" d="M6944 20491c-20,-299 82,-365 308,-198"/>
   <path class="fil2 str0" d="M7288 20400c10,-419 154,-533 431,-341"/>
   <path class="fil2 str0" d="M7544 20301c316,-51 425,37 327,263"/>
   <path class="fil2 str0" d="M7773 20292c32,-481 153,-474 362,23"/>
   <path class="fil2 str0" d="M8035 20429c334,-261 483,-240 449,64"/>
   <path class="fil2 str0" d="M8035 20650c135,-238 340,-229 612,28"/>
   <path class="fil2 str0" d="M6140 20057c130,-339 302,-434 515,-284"/>
   <path class="fil2 str0" d="M6147 19961c-284,-367 -565,-438 -842,-214"/>
   <path class="fil2 str0" d="M5124 19811c-384,-274 -698,-318 -940,-130"/>
   <path class="fil2 str0" d="M6706 19367c-3391,-214 -5323,-403 -5797,-568"/>
   <path class="fil2 str0" d="M7291 19427c952,91 1493,145 1622,163"/>
   <path class="fil2 str0" d="M8 16077c5771,1053 9934,1732 12488,2037"/>
   <path class="fil2 str0" d="M8 15037c5207,720 9370,1253 12488,1600m0 -317c-6461,-796 -10624,-1480 -12488,-2053m0 -213c5291,779 9454,1348 12488,1706m0 -530c-5961,-1019 -9386,-1861 -10274,-2528 4193,697 7617,1241 10274,1631m0 -544c-1861,-370 -2951,-609 -3269,-717"/>
   <path class="fil2 str0" d="M5437 21442c517,71 908,90 1175,57"/>
   <path class="fil2 str0" d="M5713 21491c235,10 300,43 198,100"/>
   <path class="fil2 str0" d="M5455 21475c38,24 3,57 -103,100 -66,49 -57,82 27,96"/>
   <path class="fil2 str0" d="M5075 21785c431,57 779,56 1043,-4"/>
   <path class="fil2 str0" d="M3242 22842c1213,63 1973,25 2278,-114 699,-79 1107,-41 1225,114 -37,62 -121,73 -251,32 306,168 581,297 826,386 -486,-48 -753,-30 -801,57 9,154 156,247 441,278 -116,7 -163,29 -142,64 227,53 362,117 406,192 -235,61 -415,59 -541,-7 83,212 171,302 263,271 -84,53 -140,69 -171,50 230,80 351,149 363,206 -128,-27 -190,-27 -185,0 355,139 656,213 904,221 -515,53 -795,103 -840,150 244,223 638,373 1182,449 -141,41 -121,79 61,114 209,49 244,89 107,121 -487,17 -821,84 -1000,199 277,-20 482,-6 612,43 -142,-85 0,0 427,256 94,188 521,378 1281,570 115,138 424,186 926,142 517,-33 1145,140 1884,517m0 616c-230,23 -563,1 -1001,-66"/>
   <path class="fil2 str0" d="M11154 26778c-1085,638 -1246,994 -484,1068"/>
   <path class="fil2 str0" d="M10883 26835c-810,347 -1213,650 -1210,911"/>
   <path class="fil2 str0" d="M10556 26835c-1363,27 -1880,322 -1552,883"/>
   <path class="fil2 str0" d="M8 24591c42,-11 83,-23 125,-35 1175,-168 1802,-334 1880,-498 1075,-50 1669,-197 1780,-441 1205,-125 1855,-263 1951,-413 -891,-312 -1724,-432 -2501,-361"/>
   <path class="fil2 str0" d="M5586 23859c612,133 754,218 427,256 -1274,9 -1602,194 -982,555 -115,210 37,291 456,242 694,20 837,82 427,185 -604,91 -557,195 142,313 836,256 1054,472 655,648 -664,211 -579,434 256,669 138,198 29,326 -327,384 29,229 354,333 975,313 -993,-10 -1449,109 -1367,356"/>
   <path class="fil2 str0" d="M8 27668c361,-36 605,-65 730,-85 420,-145 610,-240 570,-285 215,379 405,492 570,342 215,203 410,256 584,157 235,-115 520,-115 854,0 665,-77 1220,-77 1666,0 -247,-43 0,0 740,128 531,-261 1053,-266 1566,-14 1039,-20 1671,-73 1894,-157 334,-55 671,-7 1011,142 651,-175 1086,-239 1303,-192"/>
   <path class="fil2 str0" d="M11418 27692c469,33 828,71 1079,115"/>
   <path class="fil4 str0" d="M12189 22998c-1,23 13,32 42,27 -11,-20 -25,-29 -42,-27z"/>
   <path class="fil4 str0" d="M12496 23326c-4,0 -9,0 -15,-1 4,-8 9,-15 15,-19l0 21z"/>
   <path class="fil4 str0" d="M12074 23000c1,23 -13,32 -42,27 11,-20 25,-29 42,-27z"/>
   <path class="fil4 str0" d="M12460 23129c1,23 -13,32 -42,27 11,-20 25,-29 42,-27z"/>
   <path class="fil4 str0" d="M5948 23400c-2,61 34,85 110,71 -28,-53 -65,-77 -110,-71z"/>
   <path class="fil4 str0" d="M5371 23428c-2,61 34,85 110,71 -28,-53 -65,-77 -110,-71z"/>
   <path class="fil4 str0" d="M5727 23592c-2,61 34,85 110,71 -28,-53 -65,-77 -110,-71z"/>
   <path class="fil4 str0" d="M5428 23585c-2,61 34,85 110,71 -28,-53 -65,-77 -110,-71z"/>
   <path class="fil4 str0" d="M5236 23485c-2,61 34,85 110,71 -28,-53 -65,-77 -110,-71z"/>
   <path class="fil4 str0" d="M5279 23685c-2,61 34,85 110,71 -28,-53 -65,-77 -110,-71z"/>
   <path class="fil4 str0" d="M5350 23884c-2,61 34,85 110,71 -28,-53 -65,-77 -110,-71z"/>
   <path class="fil4 str0" d="M5414 24040c-2,61 34,85 110,71 -28,-53 -65,-77 -110,-71z"/>
   <path class="fil4 str0" d="M5364 24041c-2,61 34,85 110,71 -28,-53 -65,-77 -110,-71z"/>
   <path class="fil4 str0" d="M5072 23912c-2,61 34,85 110,71 -28,-53 -65,-77 -110,-71z"/>
   <path class="fil4 str0" d="M5049 23943c-2,61 34,85 110,71 -28,-53 -65,-77 -110,-71z"/>
   <path class="fil4 str0" d="M4745 23798c-2,61 34,85 110,71 -28,-53 -65,-77 -110,-71z"/>
   <path class="fil4 str0" d="M4574 23756c-2,61 34,85 110,71 -28,-53 -65,-77 -110,-71z"/>
   <path class="fil4 str0" d="M4389 23862c-2,61 34,85 110,71 -28,-53 -65,-77 -110,-71z"/>
   <path class="fil4 str0" d="M4253 24055c-2,61 34,85 110,71 -28,-53 -65,-77 -110,-71z"/>
   <path class="fil4 str0" d="M4318 24396c-2,61 34,85 110,71 -28,-53 -65,-77 -110,-71z"/>
   <path class="fil4 str0" d="M4723 24710c-2,61 34,85 110,71 -28,-53 -65,-77 -110,-71z"/>
   <path class="fil4 str0" d="M4851 24703c-2,61 34,85 110,71 -28,-53 -65,-77 -110,-71z"/>
   <path class="fil4 str0" d="M5749 24994c-2,61 34,85 110,71 -28,-53 -65,-77 -110,-71z"/>
   <path class="fil4 str0" d="M6119 24987c-2,61 34,85 110,71 -28,-53 -65,-77 -110,-71z"/>
   <path class="fil4 str0" d="M3848 24888c-2,61 34,85 110,71 -28,-53 -65,-77 -110,-71z"/>
   <path class="fil4 str0" d="M3613 24311c-2,61 34,85 110,71 -28,-53 -65,-77 -110,-71z"/>
   <path class="fil4 str0" d="M3428 24311c-2,61 34,85 110,71 -28,-53 -65,-77 -110,-71z"/>
   <path class="fil4 str0" d="M2659 24162c-2,61 34,85 110,71 -28,-53 -65,-77 -110,-71z"/>
   <path class="fil4 str0" d="M2388 24183c-2,61 34,85 110,71 -28,-53 -65,-77 -110,-71z"/>
   <path class="fil4 str0" d="M2495 25023c-2,61 34,85 110,71 -28,-53 -65,-77 -110,-71z"/>
   <path class="fil4 str0" d="M3121 25080c-2,61 34,85 110,71 -28,-53 -65,-77 -110,-71z"/>
   <path class="fil4 str0" d="M3008 24895c-2,61 34,85 110,71 -28,-53 -65,-77 -110,-71z"/>
   <path class="fil4 str0" d="M2039 25158c-2,61 34,85 110,71 -28,-53 -65,-77 -110,-71z"/>
   <path class="fil4 str0" d="M1384 25222c-2,61 34,85 110,71 -28,-53 -65,-77 -110,-71z"/>
   <path class="fil4 str0" d="M1440 25256c-2,61 34,85 110,71 -28,-53 -65,-77 -110,-71z"/>
   <path class="fil2 str0" d="M9167 20997c-444,75 -835,113 -1175,114 -445,-28 -793,-69 -1045,-124 -616,4 -1031,-32 -1247,-107"/>
  </g>
 </g>
</svg>
